<?xml version="1.0" encoding="UTF-8"?>
<svg width="129px" height="48px" viewBox="0 0 129 48" version="1.1" xmlns="http://www.w3.org/2000/svg" xmlns:xlink="http://www.w3.org/1999/xlink">
    <!-- Generator: Sketch 63.1 (92452) - https://sketch.com -->
    <title>Group 2</title>
    <desc>Created with Sketch.</desc>
    <g id="Page-1" stroke="none" stroke-width="1" fill="none" fill-rule="evenodd">
        <g id="Workshop-Page-Copy" transform="translate(-40.000000, -168.000000)" fill-rule="nonzero">
            <g id="Group-2" transform="translate(40.000000, 168.000000)">
                <g id="Logo-/-White">
                    <g id="logo">
                        <path d="M12.4067326,29.7790627 C9.18429979,13.8460113 12.2374932,3.39056902 12.2374932,3.39056902 C12.2374932,3.39056902 11.4206965,9.75517702 17.841326,20.013737 C17.7595293,32.7312684 20.2630047,39.3652113 20.2630047,39.3652113 L20.7774703,38.986697 L20.2630047,39.4348799 C20.2630047,39.4348799 16.4560145,36.3273599 12.4067326,29.7790627 Z" id="Path" fill="#FCFCFE" opacity="0.5"></path>
                        <path d="M27.583467,27.5232684 C29.1236965,29.0752456 30.5607162,30.1490742 31.5993555,30.6597256 C31.5932277,30.6566399 31.5870998,30.6535542 31.5809719,30.6503999 C31.5809719,30.6503999 32.7470572,31.0686856 32.9528572,30.7898742 C34.3744539,29.2847999 34.7218834,26.4801599 33.7744736,21.2087999 C28.3552342,18.1144456 27.671185,13.2905827 27.671185,13.2905827 C27.671185,13.2905827 26.6950637,19.9876113 27.583467,27.5232684 Z" id="Path" fill="#FCFCFE" opacity="0.5"></path>
                        <path d="M12.2373555,3.39056902 C12.2373555,3.39056902 7.77874569,18.6589027 15.3240801,40.4109942 C15.5298113,41.0384227 15.3240801,41.735657 14.775326,42.1539427 L6.81842602,47.7314056 C6.06389258,48.2891656 4.96639126,47.9405484 4.6234234,47.0342399 C2.49701159,41.2475656 -3.33346972,22.0750627 2.56560241,1.08986044 C2.83997946,0.253243758 3.73170143,-0.234784584 4.55482569,0.113807187 L12.2373555,3.39056902 Z" id="Path" fill="#FFFFFF"></path>
                        <path d="M27.4653162,34.0666284 L20.2629359,39.3652113 C20.2629359,39.3652113 16.4216572,29.1863313 18.4108736,9.87435416 C18.5480965,8.75890273 19.7141818,8.20114273 20.674467,8.75890273 L27.6710473,13.2905827 C27.6710473,13.2905827 26.2991621,22.7025599 28.2883785,31.7659199 C28.4941785,32.6722284 28.1512244,33.5786056 27.4653162,34.0666284 Z" id="Path" fill="#FFFFFF"></path>
                        <path d="M40.7724309,22.2842056 L34.1188047,17.8919999 C33.7072736,17.6131199 33.0899424,18.0314056 33.2270965,18.5194284 C34.8047818,25.5609599 34.5989818,29.0469256 32.9527195,30.7898742 C32.7469195,31.0687542 31.5808342,30.6503999 31.5808342,30.6503999 C32.6783424,31.2081599 32.9527195,30.9292799 32.9527195,30.9292799 C34.0502277,30.0926399 38.1658834,27.0947656 40.7724309,25.2820799 C41.8013621,24.515177 41.8013621,22.9813713 40.7724309,22.2842056 Z" id="Path" fill="#FFFFFF"></path>
                    </g>
                </g>
                <path d="M68.28,21 L73.54,6.82 L70.62,6.82 L66.92,17.36 L63.22,6.82 L60.2,6.82 L65.44,21 L68.28,21 Z M77.92,21.26 C78.96,21.26 80.1,20.86 80.64,19.94 C80.64,20.34 80.68,20.8 80.72,21 L83.26,21 C83.22,20.66 83.16,19.98 83.16,19.22 L83.16,11.16 L80.5,11.16 L80.5,16.88 C80.5,18.02 79.82,18.82 78.64,18.82 C77.4,18.82 76.84,17.94 76.84,16.84 L76.84,11.16 L74.18,11.16 L74.18,17.38 C74.18,19.52 75.54,21.26 77.92,21.26 Z M90.3,21.3 C92.72,21.3 94.28,19.88 94.78,18.18 L92.56,17.52 C92.24,18.4 91.56,19.02 90.32,19.02 C89,19.02 87.9,18.08 87.84,16.78 L94.88,16.78 C94.88,16.74 94.92,16.34 94.92,15.96 C94.92,12.8 93.1,10.86 90.06,10.86 C87.54,10.86 85.22,12.9 85.22,16.04 C85.22,19.36 87.6,21.3 90.3,21.3 Z M92.3,14.96 L87.9,14.96 C87.96,14.06 88.72,13.02 90.1,13.02 C91.62,13.02 92.26,13.98 92.3,14.96 Z M66.24,42.3 C69.54,42.3 71.36,40.1 71.36,37.92 C71.36,35.92 69.98,34.24 67.4,33.74 L65.42,33.36 C64.38,33.16 63.88,32.54 63.88,31.76 C63.88,30.82 64.76,29.96 66.1,29.96 C67.9,29.96 68.54,31.18 68.68,31.96 L71.16,31.2 C70.84,29.6 69.52,27.52 66.08,27.52 C63.4,27.52 61.14,29.44 61.14,31.96 C61.14,34.1 62.6,35.56 64.86,36.02 L66.84,36.42 C67.94,36.64 68.56,37.28 68.56,38.1 C68.56,39.1 67.74,39.84 66.26,39.84 C64.26,39.84 63.28,38.58 63.16,37.18 L60.6,37.86 C60.82,39.88 62.48,42.3 66.24,42.3 Z M77.86,42.3 C80.48,42.3 82.02,40.62 82.46,38.98 L80.12,38.2 C79.9,38.96 79.22,39.86 77.86,39.86 C76.5,39.86 75.34,38.86 75.34,37.08 C75.34,35.3 76.48,34.32 77.84,34.32 C79.16,34.32 79.78,35.16 80.02,35.98 L82.4,35.18 C81.98,33.52 80.46,31.86 77.78,31.86 C74.92,31.86 72.68,34.04 72.68,37.08 C72.68,40.1 74.96,42.3 77.86,42.3 Z M87.08,42 L87.08,36.22 C87.14,35.14 87.8,34.3 88.92,34.3 C90.2,34.3 90.74,35.16 90.74,36.26 L90.74,42 L93.4,42 L93.4,35.8 C93.4,33.64 92.24,31.9 89.74,31.9 C88.8,31.9 87.72,32.22 87.08,32.98 L87.08,27.52 L84.42,27.52 L84.42,42 L87.08,42 Z M100.52,42.3 C103.46,42.3 105.68,40.1 105.68,37.08 C105.68,34.04 103.46,31.86 100.52,31.86 C97.58,31.86 95.36,34.04 95.36,37.08 C95.36,40.1 97.58,42.3 100.52,42.3 Z M100.52,39.88 C99.22,39.88 98.02,38.92 98.02,37.08 C98.02,35.22 99.22,34.28 100.52,34.28 C101.82,34.28 103.02,35.22 103.02,37.08 C103.02,38.94 101.82,39.88 100.52,39.88 Z M112.2,42.3 C115.14,42.3 117.36,40.1 117.36,37.08 C117.36,34.04 115.14,31.86 112.2,31.86 C109.26,31.86 107.04,34.04 107.04,37.08 C107.04,40.1 109.26,42.3 112.2,42.3 Z M112.2,39.88 C110.9,39.88 109.7,38.92 109.7,37.08 C109.7,35.22 110.9,34.28 112.2,34.28 C113.5,34.28 114.7,35.22 114.7,37.08 C114.7,38.94 113.5,39.88 112.2,39.88 Z M122.12,42 L122.12,27.52 L119.46,27.52 L119.46,42 L122.12,42 Z M126.52,42.14 C127.54,42.14 128.36,41.32 128.36,40.32 C128.36,39.32 127.54,38.5 126.52,38.5 C125.52,38.5 124.7,39.32 124.7,40.32 C124.7,41.32 125.52,42.14 126.52,42.14 Z" id="VueSchool." fill="#FFFFFF"></path>
            </g>
        </g>
    </g>
</svg>