<svg xmlns="http://www.w3.org/2000/svg" xmlns:xlink="http://www.w3.org/1999/xlink" width="768" height="80" viewBox="0 0 768 80">
    <defs>
        <path id="yjrizkqd0a" d="M0 0L768 0 768 80 0 80z"/>
    </defs>
    <g fill="none" fill-rule="evenodd">
        <g>
            <mask id="3114h3pr4b" fill="#fff">
                <use xlink:href="#yjrizkqd0a"/>
            </mask>
            <use fill="#1A265A" xlink:href="#yjrizkqd0a"/>
            <g mask="url(#3114h3pr4b)" opacity=".622">
                <g>
                    <path fill="#304292" d="M14.872 12.715s.635-.941.78-2.144c-.54-1.614-1.739-3.35-3.261-4.931-.137 1.094-.622 2.124-.622 2.124s.306-1.65-.367-3.09l-.23-.206c-.3 1.35-1.301 2.422-1.301 2.422s.497-1.783.298-3.266C8.356 2.184 6.357 1.045 4.54.514c.006.033.008.053.008.053.157 1.276-.371 2.786-.371 2.786S4.453 1.663 3.64.3C2.439.083 1.355.176.51.686-.347 2.35.148 4.6 1.39 6.846c1.12.974 2.55 1.05 2.55 1.05s-.77.42-1.686.34c.711 1.034 1.557 2.039 2.478 2.957 1.188.27 2.298-.018 2.298-.018s-.809.37-1.752.543c.56.522 1.143 1.01 1.735 1.45 1.229-.014 2.176-.639 2.176-.639s-.396.857-1.243 1.286c2.737 1.772 5.533 2.428 7.186.782.778-.877.97-1.984.738-3.192-.46.752-.999 1.31-.999 1.31" transform="rotate(9 -362.333 82.329)"/>
                    <path fill="#4156B3" d="M17.583 16.576c-1.704-1.01-3.266-2.204-4.778-3.448-1.509-1.248-2.96-2.561-4.372-3.912-1.412-1.352-2.789-2.738-4.132-4.157C2.961 3.64 1.65 2.192.397.694 1.685 2.16 3.03 3.574 4.405 4.958 5.781 6.341 7.19 7.691 8.631 9.004c1.44 1.312 2.918 2.584 4.447 3.786 1.53 1.197 3.11 2.341 4.79 3.282l-.285.504" transform="rotate(9 -362.333 82.329)"/>
                </g>
            </g>
            <g mask="url(#3114h3pr4b)" opacity=".821">
                <g>
                    <path fill="#304292" d="M14.872 12.715s.635-.941.78-2.144c-.54-1.614-1.739-3.35-3.261-4.931-.137 1.094-.622 2.124-.622 2.124s.306-1.65-.367-3.09l-.23-.206c-.3 1.35-1.301 2.422-1.301 2.422s.497-1.783.298-3.266C8.356 2.184 6.357 1.045 4.54.514c.006.033.008.053.008.053.157 1.276-.371 2.786-.371 2.786S4.453 1.663 3.64.3C2.439.083 1.355.176.51.686-.347 2.35.148 4.6 1.39 6.846c1.12.974 2.55 1.05 2.55 1.05s-.77.42-1.686.34c.711 1.034 1.557 2.039 2.478 2.957 1.188.27 2.298-.018 2.298-.018s-.809.37-1.752.543c.56.522 1.143 1.01 1.735 1.45 1.229-.014 2.176-.639 2.176-.639s-.396.857-1.243 1.286c2.737 1.772 5.533 2.428 7.186.782.778-.877.97-1.984.738-3.192-.46.752-.999 1.31-.999 1.31" transform="rotate(9 .167 4688.328)"/>
                    <path fill="#4156B3" d="M17.583 16.576c-1.704-1.01-3.266-2.204-4.778-3.448-1.509-1.248-2.96-2.561-4.372-3.912-1.412-1.352-2.789-2.738-4.132-4.157C2.961 3.64 1.65 2.192.397.694 1.685 2.16 3.03 3.574 4.405 4.958 5.781 6.341 7.19 7.691 8.631 9.004c1.44 1.312 2.918 2.584 4.447 3.786 1.53 1.197 3.11 2.341 4.79 3.282l-.285.504" transform="rotate(9 .167 4688.328)"/>
                </g>
            </g>
            <g mask="url(#3114h3pr4b)">
                <g>
                    <path fill="#304292" d="M18.616 6.557s1.33-2.964-1.671-3.957c-.643-.213-1.462-.148-2.41.023.285 1.166.026 2.635.026 2.635s-.38-1.377-1.19-2.396c-.836.183-1.744.393-2.702.542.72 1.008.554 2.238.554 2.238s-.2-1.305-1.397-2.126c-.17.019-.342.035-.515.048.775 1.288.403 2.762.403 2.762s-.065-1.609-1.43-2.724c-.128 0-.257-.003-.387-.008.123 1.12-.173 2.354-.173 2.354s-.158-1.376-.85-2.439c-.764-.1-1.54-.292-2.32-.607-.062.983-.37 1.901-.37 1.901s-.162-1.338-.767-2.45C2.447 1.806 1.48 1.044.53 0c-.983 2.612-.588 5.704 1.082 8.274 1.29.242 2.703-.085 2.703-.085s-.923.735-1.943 1.111c1.196 1.427 2.835 2.622 4.897 3.378 1.26-.905 1.532-2.269 1.532-2.269s.127 1.404-.725 2.535c.192.057.388.11.586.159 1.158-.649 1.522-1.78 1.522-1.78s-.024 1.087-.74 1.95c1.48.28 3.125.358 4.933.178.505-.05.99-.145 1.448-.274.534-1.419.044-2.677.044-2.677s.813 1.05.76 2.405c.244-.098.477-.207.7-.326.455-1.075.196-2.06.196-2.06s.441.726.448 1.664c2.009-1.402 2.674-3.686.642-5.626" transform="rotate(19 83.654 1429.341)"/>
                    <path fill="#4156B3" d="M.633 0c-.005 1.146.3 2.288.887 3.262.275.499.638.94 1.008 1.365.395.406.807.796 1.267 1.125 1.817 1.35 4.036 2.076 6.265 2.272 2.24.197 4.5-.148 6.617-.868 1.06-.363 2.078-.84 3.06-1.376l.728-.421c.24-.145.471-.305.707-.457l.352-.23.34-.247.678-.498.458.62-.714.493-.358.246-.37.227c-.248.15-.49.307-.742.45l-.763.413c-1.03.525-2.094.987-3.198 1.33-2.205.682-4.542.97-6.833.702-1.143-.136-2.273-.399-3.347-.815-1.073-.414-2.092-.975-2.996-1.687-.459-.349-.868-.758-1.257-1.181-.365-.445-.72-.902-.985-1.415C.869 2.307.597 1.145.633 0" transform="rotate(19 83.654 1429.341)"/>
                </g>
            </g>
        </g>
    </g>
</svg>
