<svg width="2166" height="143" viewBox="0 0 2166 143" fill="none" xmlns="http://www.w3.org/2000/svg">
<path d="M518.503 57.9506C519.813 57.9506 520.874 56.8882 520.874 55.5778C520.874 54.2674 519.813 53.2051 518.503 53.2051C517.194 53.2051 516.132 54.2674 516.132 55.5778C516.132 56.8882 517.194 57.9506 518.503 57.9506Z" fill="white"/>
<path d="M1800.25 102.769C1801.56 102.769 1802.63 101.707 1802.63 100.396C1802.63 99.0857 1801.56 98.0234 1800.25 98.0234C1798.95 98.0234 1797.88 99.0857 1797.88 100.396C1797.88 101.707 1798.95 102.769 1800.25 102.769Z" fill="white"/>
<path d="M27.7725 25.4071C29.0824 25.4071 30.1442 24.3445 30.1442 23.0336C30.1442 21.7228 29.0824 20.6602 27.7725 20.6602C26.4627 20.6602 25.4009 21.7228 25.4009 23.0336C25.4009 24.3445 26.4627 25.4071 27.7725 25.4071Z" fill="white"/>
<path d="M501.341 75.4587C502.172 75.4587 502.846 74.7846 502.846 73.953C502.846 73.1214 502.172 72.4473 501.341 72.4473C500.51 72.4473 499.836 73.1214 499.836 73.953C499.836 74.7846 500.51 75.4587 501.341 75.4587Z" fill="white"/>
<path d="M713.082 107.306C714.291 107.306 715.272 106.325 715.272 105.114C715.272 103.903 714.291 102.922 713.082 102.922C711.872 102.922 710.891 103.903 710.891 105.114C710.891 106.325 711.872 107.306 713.082 107.306Z" fill="white"/>
<path d="M2163 68.8706C2164.21 68.8706 2165.19 67.8892 2165.19 66.6785C2165.19 65.4678 2164.21 64.4863 2163 64.4863C2161.79 64.4863 2160.81 65.4678 2160.81 66.6785C2160.81 67.8892 2161.79 68.8706 2163 68.8706Z" fill="white"/>
<path d="M1910.32 56.4474C1910.32 55.6931 1910.93 55.082 1911.68 55.082C1912.44 55.082 1913.05 55.6931 1913.05 56.4474C1913.05 57.204 1912.44 57.8151 1911.68 57.8151C1910.93 57.8151 1910.32 57.2033 1910.32 56.4474Z" fill="white"/>
<path d="M219.745 108.674C219.745 109.43 219.134 110.042 218.38 110.042C217.625 110.042 217.014 109.43 217.014 108.674C217.014 107.92 217.624 107.307 218.38 107.307C219.134 107.307 219.745 107.92 219.745 108.674Z" fill="white"/>
<path d="M49.2828 52.343C49.2828 53.0981 48.6707 53.7084 47.9162 53.7084C47.1624 53.7084 46.5503 53.0981 46.5503 52.343C46.5503 51.5864 47.1624 50.9746 47.9162 50.9746C48.6707 50.9746 49.2828 51.5864 49.2828 52.343Z" fill="white"/>
<path d="M1819.35 122.472C1819.97 122.472 1820.47 121.971 1820.47 121.352C1820.47 120.734 1819.97 120.232 1819.35 120.232C1818.73 120.232 1818.23 120.734 1818.23 121.352C1818.23 121.971 1818.73 122.472 1819.35 122.472Z" fill="white"/>
<path d="M1933.21 101.501C1933.59 101.501 1933.89 101.199 1933.89 100.826C1933.89 100.453 1933.59 100.15 1933.21 100.15C1932.84 100.15 1932.54 100.453 1932.54 100.826C1932.54 101.199 1932.84 101.501 1933.21 101.501Z" fill="white"/>
<path d="M2157.78 34.1005C2158.15 34.1005 2158.46 33.7982 2158.46 33.4252C2158.46 33.0523 2158.15 32.75 2157.78 32.75C2157.41 32.75 2157.11 33.0523 2157.11 33.4252C2157.11 33.7982 2157.41 34.1005 2157.78 34.1005Z" fill="white"/>
<path d="M1410.63 53.4072C1411 53.4072 1411.3 53.1048 1411.3 52.7319C1411.3 52.359 1411 52.0566 1410.63 52.0566C1410.26 52.0566 1409.95 52.359 1409.95 52.7319C1409.95 53.1048 1410.26 53.4072 1410.63 53.4072Z" fill="white"/>
<path d="M1377.69 80.5658C1378.06 80.5658 1378.36 80.2638 1378.36 79.8913C1378.36 79.5188 1378.06 79.2168 1377.69 79.2168C1377.32 79.2168 1377.01 79.5188 1377.01 79.8913C1377.01 80.2638 1377.32 80.5658 1377.69 80.5658Z" fill="white"/>
<path d="M2021.33 23.2593C2022.54 23.2593 2023.52 22.2779 2023.52 21.0672C2023.52 19.8565 2022.54 18.875 2021.33 18.875C2020.12 18.875 2019.14 19.8565 2019.14 21.0672C2019.14 22.2779 2020.12 23.2593 2021.33 23.2593Z" fill="white"/>
<path d="M1682.66 4.4268C1683.88 4.4268 1684.86 3.44501 1684.86 2.23391C1684.86 1.02281 1683.88 0.0410156 1682.66 0.0410156C1681.45 0.0410156 1680.47 1.02281 1680.47 2.23391C1680.47 3.44501 1681.45 4.4268 1682.66 4.4268Z" fill="white"/>
<path d="M745.814 76.2906C747.023 76.2906 748.004 75.3092 748.004 74.0984C748.004 72.8877 747.023 71.9062 745.814 71.9062C744.604 71.9062 743.623 72.8877 743.623 74.0984C743.623 75.3092 744.604 76.2906 745.814 76.2906Z" fill="white"/>
<path d="M708.45 66.2695C709.204 66.2695 709.815 65.6578 709.815 64.9033C709.815 64.1488 709.204 63.5371 708.45 63.5371C707.696 63.5371 707.085 64.1488 707.085 64.9033C707.085 65.6578 707.696 66.2695 708.45 66.2695Z" fill="white"/>
<path d="M981.006 71.9819C981.76 71.9819 982.372 71.3699 982.372 70.615C982.372 69.86 981.76 69.248 981.006 69.248C980.252 69.248 979.64 69.86 979.64 70.615C979.64 71.3699 980.252 71.9819 981.006 71.9819Z" fill="white"/>
<path d="M1975.71 48.4837C1975.71 47.7263 1976.32 47.1152 1977.07 47.1152C1977.83 47.1152 1978.44 47.7263 1978.44 48.4837C1978.44 49.2373 1977.83 49.8492 1977.07 49.8492C1976.32 49.8492 1975.71 49.2373 1975.71 48.4837Z" fill="white"/>
<path d="M1921.85 89.1836C1922.61 89.1836 1923.22 88.5719 1923.22 87.8174C1923.22 87.0628 1922.61 86.4512 1921.85 86.4512C1921.1 86.4512 1920.49 87.0628 1920.49 87.8174C1920.49 88.5719 1921.1 89.1836 1921.85 89.1836Z" fill="white"/>
<path d="M1132.5 94.8161C1133.12 94.8161 1133.62 94.3147 1133.62 93.6961C1133.62 93.0776 1133.12 92.5762 1132.5 92.5762C1131.88 92.5762 1131.38 93.0776 1131.38 93.6961C1131.38 94.3147 1131.88 94.8161 1132.5 94.8161Z" fill="white"/>
<path d="M1409.33 16.8204C1409.94 16.8204 1410.44 16.3193 1410.44 15.7012C1410.44 15.0831 1409.94 14.582 1409.33 14.582C1408.71 14.582 1408.21 15.0831 1408.21 15.7012C1408.21 16.3193 1408.71 16.8204 1409.33 16.8204Z" fill="white"/>
<path d="M350.629 77.6825C351.002 77.6825 351.304 77.3802 351.304 77.0073C351.304 76.6343 351.002 76.332 350.629 76.332C350.257 76.332 349.955 76.6343 349.955 77.0073C349.955 77.3802 350.257 77.6825 350.629 77.6825Z" fill="white"/>
<path d="M866.075 81.292C866.448 81.292 866.75 80.9896 866.75 80.6167C866.75 80.2437 866.448 79.9414 866.075 79.9414C865.702 79.9414 865.4 80.2437 865.4 80.6167C865.4 80.9896 865.702 81.292 866.075 81.292Z" fill="white"/>
<path d="M860.744 54.4501C861.117 54.4501 861.419 54.1478 861.419 53.7749C861.419 53.4019 861.117 53.0996 860.744 53.0996C860.371 53.0996 860.069 53.4019 860.069 53.7749C860.069 54.1478 860.371 54.4501 860.744 54.4501Z" fill="white"/>
<path d="M1946.63 57.7616C1947 57.7616 1947.31 57.4599 1947.31 57.0878C1947.31 56.7157 1947 56.4141 1946.63 56.4141C1946.26 56.4141 1945.96 56.7157 1945.96 57.0878C1945.96 57.4599 1946.26 57.7616 1946.63 57.7616Z" fill="white"/>
<path d="M1534.98 63.6968C1536.19 63.6968 1537.17 62.7154 1537.17 61.5047C1537.17 60.294 1536.19 59.3125 1534.98 59.3125C1533.77 59.3125 1532.79 60.294 1532.79 61.5047C1532.79 62.7154 1533.77 63.6968 1534.98 63.6968Z" fill="white"/>
<path d="M790.13 40.2619C790.747 40.2619 791.248 39.7608 791.248 39.1427C791.248 38.5245 790.747 38.0234 790.13 38.0234C789.512 38.0234 789.011 38.5245 789.011 39.1427C789.011 39.7608 789.512 40.2619 790.13 40.2619Z" fill="white"/>
<path d="M1869.18 83.5026C1869.18 83.1303 1869.48 82.8281 1869.86 82.8281C1870.23 82.8281 1870.53 83.1303 1870.53 83.5026C1870.53 83.8749 1870.23 84.1786 1869.86 84.1786C1869.48 84.1794 1869.18 83.8749 1869.18 83.5026Z" fill="white"/>
<path d="M1065.93 136.452C1065.93 136.824 1065.63 137.129 1065.26 137.129C1064.88 137.129 1064.58 136.824 1064.58 136.452C1064.58 136.079 1064.88 135.779 1065.26 135.779C1065.63 135.779 1065.93 136.079 1065.93 136.452Z" fill="white"/>
<path d="M1120.43 81.2917C1120.43 81.6625 1120.13 81.9677 1119.75 81.9677C1119.38 81.9677 1119.08 81.6625 1119.08 81.2917C1119.08 80.9201 1119.38 80.6172 1119.75 80.6172C1120.13 80.6172 1120.43 80.9201 1120.43 81.2917Z" fill="white"/>
<path d="M1295.69 92.6246C1295.69 93.8341 1294.71 94.8167 1293.5 94.8167C1292.29 94.8167 1291.31 93.8348 1291.31 92.6246C1291.31 91.4113 1292.29 90.4316 1293.5 90.4316C1294.71 90.4316 1295.69 91.4113 1295.69 92.6246Z" fill="white"/>
<path d="M1245.27 118.013C1245.27 118.766 1244.66 119.38 1243.9 119.38C1243.15 119.38 1242.54 118.766 1242.54 118.013C1242.54 117.257 1243.15 116.645 1243.9 116.645C1244.66 116.645 1245.27 117.258 1245.27 118.013Z" fill="white"/>
<path d="M1.90622 103.832C2.52429 103.832 3.02532 103.33 3.02532 102.712C3.02532 102.093 2.52429 101.592 1.90622 101.592C1.28816 101.592 0.787109 102.093 0.787109 102.712C0.787109 103.33 1.28816 103.832 1.90622 103.832Z" fill="white"/>
<path d="M1266.75 84.3641C1267.13 84.3641 1267.43 84.0618 1267.43 83.6889C1267.43 83.316 1267.13 83.0137 1266.75 83.0137C1266.38 83.0137 1266.08 83.316 1266.08 83.6889C1266.08 84.0618 1266.38 84.3641 1266.75 84.3641Z" fill="white"/>
<path d="M771.17 44.6693C771.542 44.6693 771.844 44.3673 771.844 43.9948C771.844 43.6223 771.542 43.3203 771.17 43.3203C770.797 43.3203 770.496 43.6223 770.496 43.9948C770.496 44.3673 770.797 44.6693 771.17 44.6693Z" fill="white"/>
<path d="M1432.68 66.3114C1433.05 66.3114 1433.35 66.0091 1433.35 65.6362C1433.35 65.2632 1433.05 64.9609 1432.68 64.9609C1432.31 64.9609 1432 65.2632 1432 65.6362C1432 66.0091 1432.31 66.3114 1432.68 66.3114Z" fill="white"/>
<path d="M387.88 5.4671C387.88 6.67585 386.899 7.65851 385.69 7.65851C384.48 7.65851 383.499 6.6766 383.499 5.4671C383.499 4.25462 384.48 3.27344 385.69 3.27344C386.899 3.27344 387.88 4.25462 387.88 5.4671Z" fill="white"/>
<path d="M1031.21 125.056C1031.59 125.056 1031.89 124.753 1031.89 124.38C1031.89 124.007 1031.59 123.705 1031.21 123.705C1030.84 123.705 1030.54 124.007 1030.54 124.38C1030.54 124.753 1030.84 125.056 1031.21 125.056Z" fill="white"/>
<path d="M1025.88 98.2138C1026.25 98.2138 1026.56 97.9115 1026.56 97.5385C1026.56 97.1656 1026.25 96.8633 1025.88 96.8633C1025.51 96.8633 1025.21 97.1656 1025.21 97.5385C1025.21 97.9115 1025.51 98.2138 1025.88 98.2138Z" fill="white"/>
<path d="M1430.18 142.296C1430.1 141.933 1430.32 141.567 1430.69 141.482C1431.05 141.398 1431.41 141.626 1431.5 141.99C1431.58 142.352 1431.36 142.713 1430.99 142.797C1430.63 142.881 1430.27 142.659 1430.18 142.296Z" fill="white"/>
<path d="M40.9501 127.172C40.9501 128.381 39.9689 129.364 38.7596 129.364C37.5495 129.364 36.5684 128.382 36.5684 127.172C36.5684 125.96 37.5495 124.979 38.7596 124.979C39.9689 124.978 40.9501 125.96 40.9501 127.172Z" fill="white"/>
</svg>
