<svg width="495" height="191" viewBox="0 0 495 191" fill="none" xmlns="http://www.w3.org/2000/svg">
<path fill-rule="evenodd" clip-rule="evenodd" d="M164.38 70.1256L174.151 38.7177L183.921 70.1256H164.38ZM178.158 25.8346H170.143H165.93L141.27 101.541H154.607L160.65 82.115H187.651L193.693 101.541H207.03L182.371 25.8346H178.158Z" fill="#396AFF"/>
<path fill-rule="evenodd" clip-rule="evenodd" d="M287.288 31.6061H275.298V43.3715H266.7V55.3615H275.298V101.012H287.288V55.3615H295.887V43.3715H287.288V31.6061Z" fill="#396AFF"/>
<path fill-rule="evenodd" clip-rule="evenodd" d="M363.629 101.011H375.618V44.8479H363.629V101.011Z" fill="#396AFF"/>
<path fill-rule="evenodd" clip-rule="evenodd" d="M247.501 76.7231V78.4067C247.501 85.4318 241.785 91.1471 234.76 91.1471C227.735 91.1471 222.02 85.4318 222.02 78.4067V76.7231L222.085 43.3308H210.095L210.16 76.7231V78.4067C210.16 91.9716 221.195 103.007 234.76 103.007C248.324 103.007 259.36 91.9716 259.36 78.4067V76.7231L259.425 43.3308H247.435L247.501 76.7231Z" fill="#396AFF"/>
<path fill-rule="evenodd" clip-rule="evenodd" d="M469.317 88.8023C462.011 88.8023 456.088 82.1364 456.088 70.6225C456.088 59.6593 462.011 52.4428 469.317 52.4428C476.624 52.4428 482.664 59.6228 482.664 70.6225C482.664 82.4878 476.624 88.8023 469.317 88.8023ZM494.653 80.7664V43.4147H482.664V49.5845C478.387 44.8275 472.588 42.1357 466.249 42.1357C453.273 42.1357 442.756 53.444 442.756 70.6225C442.756 88.6646 453.273 99.1094 466.249 99.1094C472.588 99.1094 478.387 96.7408 482.664 92.1567V98.3028H482.674V101.619C482.674 108.573 477.015 114.231 470.061 114.231C463.106 114.231 457.449 108.573 457.449 101.619H445.334C445.334 115.253 456.426 126.346 470.061 126.346C483.696 126.346 494.789 115.253 494.789 101.619V80.7664H494.653Z" fill="#396AFF"/>
<path fill-rule="evenodd" clip-rule="evenodd" d="M369.624 23.204C365.287 23.204 361.77 26.7204 361.77 31.0581C361.77 35.3951 365.287 38.9115 369.624 38.9115C373.961 38.9115 377.478 35.3951 377.478 31.0581C377.478 26.7204 373.961 23.204 369.624 23.204Z" fill="#396AFF"/>
<path fill-rule="evenodd" clip-rule="evenodd" d="M416.65 41.4199H413.94C407.541 41.4199 397.943 46.031 397.943 54.8657V45.9567H385.954V100.845H397.943V66.4756C397.943 58.9147 404.073 52.7852 411.634 52.7852C418.414 52.7852 423.909 58.2809 423.909 65.0602V101.011H437.175V61.9452C437.175 50.6093 427.985 41.4199 416.65 41.4199Z" fill="#396AFF"/>
<path fill-rule="evenodd" clip-rule="evenodd" d="M333.774 41.4199H331.065C325.249 41.4199 317.795 44.2488 315.779 50.7758V21.6853H303.789V100.588H315.779V62.1443C317.593 56.7081 322.713 52.7852 328.758 52.7852C335.538 52.7852 341.034 58.2809 341.034 65.0602V101.011H354.3V61.9452C354.3 50.6093 345.11 41.4199 333.774 41.4199Z" fill="#396AFF"/>
<path fill-rule="evenodd" clip-rule="evenodd" d="M59.803 113.736C33.9292 100.103 16.2866 72.9507 16.2866 41.6727C16.2866 40.8821 16.3058 40.096 16.3282 39.3112L59.81 12.796L103.278 39.3112C103.3 40.096 103.32 40.8821 103.32 41.6727C103.32 72.9507 85.6767 100.103 59.803 113.736ZM114.301 33.2374L59.81 0L5.30538 33.2374C5.27721 34.222 5.25352 35.2072 5.25352 36.1981C5.25352 75.4063 27.3689 109.443 59.803 126.532C92.237 109.443 114.352 75.4063 114.352 36.1981C114.352 35.2072 114.329 34.222 114.301 33.2374Z" fill="#396AFF"/>
<path fill-rule="evenodd" clip-rule="evenodd" d="M69.5359 28.4935L59.8888 46.4088L71.0121 66.6908L59.8837 84.2284L48.7559 66.6908L59.8792 46.4088L50.435 28.3942L26.2366 44.3328V46.2174C26.2366 70.6309 39.9685 91.8123 60.1628 102.404C80.3577 91.7227 94.0897 70.5413 94.0897 46.2174C94.0897 45.59 94.0897 44.9614 94.0897 44.3328L69.5359 28.4935Z" fill="#396AFF"/>
<path d="M18.8014 164.798V176.325H44.4221V164.798H18.8014ZM39.7678 172.246H23.4557V168.833H39.7678V172.246ZM23.766 176.591L19.422 178.232C20.6632 179.34 21.7713 180.493 22.7022 181.734H12.2855V186.123H50.6721V181.734H41.009C41.8955 180.581 42.7377 179.34 43.5356 178.01L39.2359 176.458C38.3051 178.276 37.2412 180.049 36.0001 181.734H27.6224C26.4699 179.783 25.1844 178.054 23.766 176.591ZM16.8068 152.163L13.7039 155.089C15.7429 156.507 17.4717 157.882 18.9344 159.212C16.7181 160.764 14.1028 162.138 11 163.335L13.8369 166.97C18.0036 165.241 21.5054 163.158 24.3422 160.675V162.094H40.61V160.453C43.181 162.803 46.1952 164.931 49.6526 166.882L52.7111 163.335C50.3175 162.138 48.1899 160.808 46.2395 159.389C48.0125 158.015 49.6083 156.463 50.9381 154.778L47.7023 151.941C46.3725 153.67 44.821 155.266 42.9593 156.685C42.0728 155.887 41.2749 155.089 40.5657 154.202C42.3831 152.872 43.9788 151.365 45.3086 149.768L42.0728 146.887C40.9647 148.305 39.6349 149.635 38.0834 150.877C37.1083 149.414 36.2661 147.862 35.5568 146.222L31.7004 148.35C33.2519 151.808 35.3795 154.956 38.0391 157.882H27.0462C28.7749 155.842 30.149 153.537 31.1685 150.966V147.507H15.8759V151.764H25.938C24.9628 153.448 23.7217 155.044 22.1703 156.552C20.6632 155.133 18.8458 153.67 16.8068 152.163ZM61.1332 147.552V151.719H82.8531V154.823H62.6403V158.813H82.8531V161.872H56.7005V166.084H73.2786V170.961C68.4027 175.128 62.6846 178.675 56.0356 181.69L57.8973 185.99C63.7927 182.931 68.9346 179.517 73.2786 175.704V181.512C73.2786 182.665 72.924 183.286 72.2591 183.286C70.752 183.286 69.2006 183.153 67.6048 182.975L68.6243 187.32H73.8105C76.5144 187.32 77.8885 185.724 77.8885 182.621V175.527C81.7006 179.65 86.7095 183.153 92.9152 186.079L95.2645 182C90.9205 180.138 87.1084 178.054 83.8283 175.66C86.7538 174.064 89.3691 171.803 91.6741 168.966L88.1723 166.084H95.0429V161.872H87.5517V147.552H61.1332ZM62.2413 166.749L59.1828 169.675C62.0197 171.626 64.1917 173.399 65.7431 175.084L68.7573 172.069C66.9843 170.296 64.8123 168.522 62.2413 166.749ZM88.0836 166.084C86.0003 169.099 83.518 171.448 80.6811 173.133C79.6616 172.246 78.7307 171.36 77.8885 170.429V166.084H88.0836ZM125.096 146.576C125.052 155.089 124.431 161.961 123.234 167.281C121.727 173.576 118.447 178.897 113.394 183.241L116.541 187.099C122.481 182.089 126.249 175.793 127.8 168.212C127.889 167.857 127.933 167.458 128.022 167.059C130.415 174.818 133.695 181.468 137.906 186.966L141.275 183.108C135.602 176.68 131.612 168.079 129.396 157.305C129.662 154.025 129.795 150.433 129.795 146.576H125.096ZM105.903 146.532L102.623 149.724C105.77 152.03 108.208 154.202 109.892 156.241L113.084 153.005C111.089 150.877 108.695 148.704 105.903 146.532ZM99.7415 159.345V163.778H105.814V179.074C105.814 180.049 105.415 180.892 104.617 181.512L106.39 185.635C109.671 183.507 112.729 181.158 115.61 178.498L114.369 173.754C112.951 175.128 111.577 176.369 110.291 177.433V159.345H99.7415ZM171.107 152.384V181.291H166.32V158.813H161.798V181.291H157.765V185.813H185.291V181.291H175.806V167.635H183.74V163.335H175.806V152.384H184.361V147.862H159.095V152.384H171.107ZM150.362 146.576L147.126 149.635C150.185 151.941 152.534 154.158 154.219 156.241L157.366 153.005C155.415 150.877 153.11 148.749 150.362 146.576ZM144.024 159.345V163.778H150.052V179.074C150.052 180.049 149.653 180.847 148.855 181.468L150.628 185.68C153.642 183.596 156.524 181.246 159.227 178.675L158.031 173.798C156.79 175.039 155.593 176.148 154.44 177.212V159.345H144.024ZM195.265 175.97C194.157 175.97 193.27 176.281 192.605 176.946C191.896 177.567 191.541 178.409 191.541 179.473C191.541 180.448 191.852 181.291 192.517 181.956C193.182 182.621 193.979 182.975 194.955 182.975C195.442 182.975 195.797 182.887 196.063 182.798C196.063 183.862 195.708 184.882 194.91 185.946C194.068 186.921 193.049 187.631 191.852 188.074V191C194.157 190.335 196.018 189.138 197.393 187.409C198.722 185.635 199.432 183.596 199.432 181.246C199.432 179.695 199.033 178.409 198.279 177.433C197.481 176.458 196.462 175.97 195.265 175.97ZM237.242 162.094V166.571H246.063L243.004 181.069H233.297V185.591H273.102V181.069H266.276V162.094H251.648L253.598 152.872H271.418V148.394H234.937V152.872H248.944L246.994 162.094H237.242ZM247.659 181.069L250.717 166.571H261.577V181.069H247.659ZM293.847 148.571V153.138H315.655V148.571H293.847ZM292.783 159.567V164.133H306.037V181.557C306.037 182.443 305.416 182.887 304.219 182.887C302.357 182.887 300.407 182.754 298.368 182.576L299.388 187.099H305.815C309.095 187.099 310.735 185.635 310.735 182.709V164.133H317.561V159.567H292.783ZM286.134 146.488C284.095 150.522 280.992 154.025 276.825 156.995L278.244 161.65C283.962 157.704 287.996 153.315 290.345 148.483L286.134 146.488ZM288.217 156.685C285.824 161.384 282.145 165.507 277.18 168.966L278.599 173.532C280.283 172.335 281.923 171.094 283.43 169.852V187.276H287.996V165.286C289.769 163.158 291.232 160.941 292.384 158.635L288.217 156.685ZM360.07 156.197L346.329 158.103C346.063 154.645 345.93 150.655 345.93 146.133H341.232C341.32 150.833 341.498 155.044 341.764 158.724L332.322 160.054L333.031 164.443L342.163 163.158C342.473 166.128 342.872 168.655 343.404 170.695C344.689 175.749 346.64 179.828 349.255 182.931C351.648 185.768 353.953 187.232 356.17 187.232C357.633 187.187 358.829 186.478 359.716 185.059C360.735 183.286 361.533 180.626 362.154 176.99L358.12 174.64C357.632 179.828 356.879 182.443 355.904 182.532C354.53 182.443 353.067 181.246 351.515 178.941C349.831 176.547 348.501 173 347.526 168.389C347.171 166.704 346.906 164.754 346.684 162.537L360.824 160.586L360.07 156.197ZM326.382 164.222V187.365H331.081V157.35C332.765 154.424 334.184 151.32 335.248 148.039L330.904 146C328.776 152.828 325.452 158.724 320.975 163.734L322.482 168.567C323.856 167.148 325.141 165.685 326.382 164.222ZM350.585 146.31L347.659 149.148C350.496 151.586 352.624 153.847 354.131 155.931L357.278 152.828C355.416 150.655 353.2 148.483 350.585 146.31ZM381.391 161.384H373.324C374.299 158.635 375.053 155.754 375.629 152.695H382.101V148.261H366.586V152.695H371.285C370.221 158.635 368.226 163.956 365.257 168.7L367.562 172.468C368.182 171.537 368.803 170.606 369.423 169.631V185.813H373.679V182.931H377.136V184.97H381.391V161.384ZM373.679 178.719V165.552H377.136V178.719H373.679ZM386.001 154.424L383.608 169.453H401.516C401.516 175.749 401.161 179.517 400.496 180.847C399.876 182.133 397.925 182.798 394.645 182.798C393.892 182.798 392.517 182.665 390.567 182.399L391.897 186.877C393.227 187.01 394.468 187.099 395.709 187.099C399.876 187.099 402.624 186.212 403.954 184.527C405.239 182.798 405.904 176.325 405.904 165.153H401.471L403.776 147.64H383.696V151.985H398.767L396.817 165.153H388.705L390.523 154.69L386.001 154.424ZM382.766 173.754V178.099H399.344V173.754H382.766ZM416.631 147.64V163.734H429.087V181.069C428.555 180.892 428.067 180.759 427.624 180.581C425.23 179.606 423.058 177.3 421.108 173.665C421.773 171.537 422.349 169.232 422.837 166.837L418.315 166.039C416.941 173.488 414.282 179.473 410.381 183.906L413.306 187.631C415.789 184.97 417.828 181.778 419.512 178.01C421.285 181.158 423.324 183.286 425.629 184.394C428.51 185.768 433.874 186.478 441.764 186.522C443.98 186.567 446.507 186.611 449.299 186.611L450.629 182.044C448.147 182.222 445.088 182.31 441.454 182.31C438.528 182.31 435.957 182.177 433.741 181.911V174.241H448.058V169.719H433.741V163.734H445.443V147.64H416.631ZM440.744 159.389H421.285V152.074H440.744V159.389ZM464.769 166.793H472.66C472.527 168.478 472.261 170.074 471.817 171.581H455.948V175.837H469.778C469.468 176.325 469.113 176.813 468.714 177.256C466.321 179.828 461.667 182 454.84 183.685L457.323 187.631C464.149 185.946 469.113 183.507 472.128 180.315C473.103 179.207 473.989 177.966 474.743 176.547C477.491 181.113 483.475 184.793 492.739 187.631L495 183.64C487.287 181.601 482.012 178.985 479.131 175.837H493.626V171.581H476.605C476.959 170.118 477.181 168.522 477.269 166.793H490.035V162.537H467.207C467.562 161.739 467.961 160.852 468.315 159.921L465.966 158.946C472.349 158.68 478.998 158.325 485.913 157.926C486.8 159.034 487.598 160.143 488.395 161.296L492.252 158.591C490.035 155.576 486.888 152.074 482.81 147.995L479.22 150.256C480.461 151.542 481.613 152.828 482.766 154.158C479.22 154.379 473.989 154.645 466.986 155C469.557 153.138 472.083 150.611 474.654 147.463L469.823 146C466.011 150.921 462.331 153.98 458.741 155.177L459.539 159.212L463.883 159.034C462.376 162.67 460.159 165.685 457.234 167.99L460.824 171.138C462.243 169.897 463.573 168.478 464.769 166.793Z" fill="#396AFF"/>
</svg>
