<?xml version="1.0" encoding="utf-8"?>
<!-- Generator: Adobe Illustrator 23.0.6, SVG Export Plug-In . SVG Version: 6.00 Build 0)  -->
<svg version="1.1" id="Layer_1" xmlns="http://www.w3.org/2000/svg" xmlns:xlink="http://www.w3.org/1999/xlink" x="0px" y="0px"
	 viewBox="0 0 500 100" style="enable-background:new 0 0 500 100;" xml:space="preserve">
<style type="text/css">
	.st0{fill:#111111;}
	.st1{fill:#2C68FF;}
	.st2{fill:#0A0777;}
</style>
<g>
	<g>
		<g>
			<path class="st0" d="M197.7,84.3h-18.4l-3.4,10.3h-11.9l19.3-52h7.6h2.9l19.4,52h-12L197.7,84.3z M194.7,75.2l-6.3-19l-6.2,19
				H194.7z"/>
			<path class="st0" d="M250.1,55.9v38.6H240l-0.3-4c-1.2,1.5-2.7,2.7-4.5,3.5c-1.8,0.8-3.8,1.2-6,1.2c-4,0-7.2-1.2-9.4-3.5
				c-2.3-2.3-3.4-6-3.4-10.9v-25h10.8V81c0,1.9,0.5,3.3,1.4,4.2c0.9,0.9,2.2,1.4,3.9,1.4c3.3,0,5.6-1.2,6.9-3.5V55.9H250.1z"/>
			<path class="st0" d="M277.3,86.2v8.1c-1.9,0.7-4,1-6.4,1c-7.6,0-11.4-3.9-11.4-11.6V63.8h-5.5v-7.9h5.5v-9.6h10.8v9.6h6.5v7.9
				h-6.5v18.7c0,1.5,0.3,2.6,0.9,3.1c0.6,0.6,1.6,0.8,3,0.8C275.5,86.4,276.5,86.4,277.3,86.2z"/>
			<path class="st0" d="M282.2,64.8c1.4-3,3.5-5.3,6.3-7c2.8-1.7,6.1-2.5,9.9-2.5c3.9,0,7.2,0.8,10,2.5c2.8,1.7,4.9,4,6.3,7
				c1.4,3,2.2,6.4,2.2,10.1v0.8c0,3.8-0.7,7.2-2.2,10.1c-1.4,3-3.5,5.3-6.3,7c-2.8,1.7-6.1,2.5-9.9,2.5c-3.9,0-7.2-0.8-9.9-2.5
				c-2.8-1.7-4.9-4-6.3-7c-1.4-3-2.2-6.3-2.2-10.1v-0.8C280,71.1,280.7,67.7,282.2,64.8z M292.6,83.6c1.2,2,3.2,3,5.8,3
				c2.6,0,4.5-1,5.8-3c1.2-2,1.8-4.7,1.8-8v-0.8c0-3.3-0.6-5.9-1.8-8c-1.2-2-3.2-3-5.8-3c-2.6,0-4.5,1-5.8,3.1
				c-1.2,2-1.8,4.7-1.8,7.9v0.8C290.8,79,291.4,81.6,292.6,83.6z"/>
			<path class="st0" d="M355.3,81c0,2.7-0.7,5.2-2.1,7.4c-1.4,2.2-3.4,3.9-5.8,5.1c-2.4,1.2-5.2,1.8-8.1,1.8c-3.9,0-7.2-0.8-9.9-2.5
				c-2.7-1.7-4.7-4-6.1-7c-1.3-3-2-6.3-2-10.1v-0.9c0-3.8,0.7-7.1,2-10.1c1.3-3,3.4-5.3,6-7s5.9-2.5,9.8-2.5c3.2,0,6,0.6,8.4,1.8
				c2.4,1.2,4.3,3,5.7,5.3s2,5,2,8.1h-10.1c0-1.9-0.6-3.5-1.7-4.7c-1.1-1.2-2.6-1.9-4.6-1.9c-2.6,0-4.4,1-5.4,2.9
				c-1,2-1.5,4.6-1.5,7.9v0.9c0,3.4,0.5,6.1,1.5,8c1,1.9,2.8,2.9,5.5,2.9c1.9,0,3.3-0.5,4.5-1.5c1.1-1,1.7-2.4,1.7-4.1H355.3z"/>
			<path class="st0" d="M361.6,64.8c1.4-3,3.5-5.3,6.3-7c2.8-1.7,6.1-2.5,9.9-2.5c3.9,0,7.2,0.8,10,2.5c2.8,1.7,4.9,4,6.3,7
				c1.4,3,2.2,6.4,2.2,10.1v0.8c0,3.8-0.7,7.2-2.2,10.1c-1.4,3-3.5,5.3-6.3,7c-2.8,1.7-6.1,2.5-9.9,2.5c-3.9,0-7.2-0.8-9.9-2.5
				c-2.8-1.7-4.9-4-6.3-7c-1.4-3-2.2-6.3-2.2-10.1v-0.8C359.5,71.1,360.2,67.7,361.6,64.8z M372.1,83.6c1.2,2,3.2,3,5.8,3
				c2.6,0,4.5-1,5.8-3c1.2-2,1.8-4.7,1.8-8v-0.8c0-3.3-0.6-5.9-1.8-8c-1.2-2-3.2-3-5.8-3c-2.6,0-4.5,1-5.8,3.1
				c-1.2,2-1.8,4.7-1.8,7.9v0.8C370.2,79,370.9,81.6,372.1,83.6z"/>
			<path class="st0" d="M435.8,39.7v54.9h-9.7l-0.5-4.1c-2.5,3.2-5.8,4.9-9.8,4.9c-3.1,0-5.8-0.8-8.1-2.5c-2.3-1.7-4-4-5.2-6.9
				c-1.2-3-1.8-6.3-1.8-10.1V75c0-3.9,0.6-7.4,1.8-10.4c1.2-3,2.9-5.3,5.2-6.9c2.3-1.6,5-2.5,8.2-2.5c3.7,0,6.7,1.4,9.2,4.2V39.7
				H435.8z M425,82.7V67.8c-1.2-2.6-3.4-3.9-6.4-3.9c-2.5,0-4.2,1-5.4,3c-1.1,2-1.7,4.7-1.7,8v0.8c0,3.3,0.6,5.9,1.7,7.9
				s2.9,2.9,5.3,2.9C421.6,86.6,423.7,85.3,425,82.7z"/>
			<path class="st0" d="M477.6,78.8h-24.4c0.4,2.4,1.4,4.3,3,5.7c1.6,1.4,3.6,2.1,6.1,2.1c1.9,0,3.6-0.4,5.2-1.1
				c1.6-0.7,2.9-1.8,4.1-3.2l5.2,6c-1.4,2-3.3,3.6-5.9,4.9s-5.7,2-9.2,2c-4,0-7.4-0.8-10.3-2.5c-2.9-1.7-5.2-3.9-6.7-6.8
				c-1.6-2.9-2.3-6-2.3-9.5v-1.4c0-3.9,0.7-7.3,2.2-10.3c1.5-3,3.6-5.4,6.3-7.1c2.7-1.7,6-2.6,9.7-2.6c3.6,0,6.8,0.8,9.3,2.3
				c2.6,1.5,4.5,3.7,5.9,6.6c1.3,2.8,2,6.2,2,10.1V78.8z M467,70.7c0-2.1-0.6-3.8-1.7-5c-1.1-1.2-2.8-1.8-5-1.8c-2,0-3.6,0.7-4.8,2
				c-1.2,1.4-1.9,3.2-2.3,5.6H467V70.7z"/>
		</g>
	</g>
	<g>
		<path class="st1" d="M493.6,98.3V36.7h6.4v61.6H493.6z"/>
	</g>
</g>
<g id="a13cf799-b1f1-42e4-a6d9-06ffc95f68f5">
	<g id="b69a1ca1-8a90-471a-b695-086f523a4892">
		<g>
			<path class="st2" d="M151.7,75c-0.1,6.1-3.1,12.1-9.1,16.7l-7.5,5.8l0,0L98.9,69.8v-2.2c0-0.5,0-1.1-0.1-1.6
				c0-0.2-0.1-0.5-0.1-0.7c-0.1-0.5-0.2-0.9-0.3-1.3c0-0.2-0.1-0.3-0.1-0.5c0-0.2-0.1-0.3-0.1-0.5c-0.3-1-0.8-2.1-1.3-3
				c-0.2-0.3-0.3-0.6-0.5-0.8c-0.2-0.3-0.3-0.5-0.5-0.8c-0.1-0.1-0.2-0.3-0.3-0.4c-0.7-0.9-1.4-1.8-2.3-2.6c-0.5-0.5-1-0.9-1.6-1.3
				c-1.2-0.9-2.5-1.8-3.9-2.4c-0.2-0.1-0.3-0.2-0.5-0.2c-0.8-0.4-1.6-0.7-2.4-1c-0.2-0.1-0.3-0.1-0.5-0.2c-0.1,0-0.3-0.1-0.4-0.1
				c-0.5-0.1-0.8-0.6-0.8-1V44c0-1,0.5-1.9,1.2-2.5L111,21.2c1.1-0.9,2.7-0.9,3.9,0l27.7,21.2c2,1.5,3.8,3.4,5.3,5.5
				c0.2,0.2,0.3,0.4,0.4,0.7c0.4,0.6,0.8,1.2,1.1,1.8c0.2,0.4,0.4,0.7,0.5,1.1c0,0,0,0,0,0c0.1,0.3,0.3,0.7,0.4,1
				c0,0.1,0.1,0.2,0.1,0.3c0.1,0.2,0.1,0.3,0.2,0.5c0,0.1,0,0.1,0.1,0.2c0.1,0.2,0.1,0.5,0.2,0.7c0,0,0,0.1,0,0.1c0,0,0,0.1,0,0.1
				c0.1,0.3,0.1,0.5,0.2,0.8c0,0.1,0,0.2,0.1,0.2c0.1,0.3,0.1,0.5,0.2,0.8c0,0.1,0,0.1,0,0.2c0,0.3,0.1,0.6,0.1,0.9c0,0,0,0.1,0,0.1
				c0,0.2,0,0.3,0,0.5c0,0.1,0,0.3,0,0.5c0,0,0,0.1,0,0.1c0,0.3,0,0.6,0,1v0.6C151.7,62.2,151.7,73.4,151.7,75z"/>
			<path class="st2" d="M105.4,15.5v2.2c0,1-0.5,1.9-1.2,2.5L80.4,38.6c-1.2,0.9-1.9,2.3-1.9,3.8v4.8c0,0.1,0,0.3,0,0.7
				c0,0.6-0.5,1.1-1.1,1.1c0,0,0,0,0,0c-0.5,0-1,0-1.5,0c-1.1,0-2.2,0.1-3.3,0.2c-0.5,0.1-1.1,0.1-1.6,0.2c-0.2,0-0.4,0.1-0.5,0.1
				c-0.4,0.1-0.7,0.1-1.1,0.2c-0.3,0.1-0.7,0.2-1,0.3c-0.3,0.1-0.7,0.2-1,0.3c-0.2,0.1-0.4,0.1-0.6,0.2c-0.7,0.3-1.4,0.5-2.1,0.8
				c-0.3,0.1-0.6,0.3-0.8,0.4c-1.3,0.7-2.6,1.5-3.8,2.4c-0.4,0.3-0.8,0.7-1.2,1c-0.2,0.2-0.5,0.4-0.7,0.6l0,0
				c-1.3,1.3-2.4,2.7-3.2,4.3c-0.7,1.3-1.2,2.6-1.5,4c-0.1,0.4-0.2,0.9-0.3,1.3c0,0.2-0.1,0.5-0.1,0.7c0,0.4-0.1,2.3-0.1,3.2
				c0,0.3-0.2,0.6-0.4,0.8L16.8,97.4l0,0l-7.5-5.8C3.3,87,0.2,81,0.2,74.9c0-1.6,0-12.8,0-15.1v-0.6c0-0.3,0-0.7,0-1
				c0,0,0-0.1,0-0.1c0-0.2,0-0.3,0-0.5c0-0.2,0-0.3,0-0.5c0,0,0-0.1,0-0.1c0-0.3,0.1-0.6,0.1-0.9c0-0.1,0-0.1,0-0.2
				c0-0.3,0.1-0.5,0.2-0.8c0-0.1,0-0.2,0.1-0.2c0.1-0.3,0.1-0.5,0.2-0.8c0,0,0-0.1,0-0.1c0,0,0-0.1,0-0.1c0.1-0.2,0.1-0.5,0.2-0.7
				c0-0.1,0-0.1,0.1-0.2c0.1-0.2,0.1-0.3,0.2-0.5c0-0.1,0.1-0.2,0.1-0.3c0.1-0.3,0.3-0.7,0.4-1c0,0,0,0,0,0c0.2-0.4,0.3-0.7,0.5-1.1
				c0.3-0.6,0.7-1.2,1.1-1.8C3.7,48.2,3.8,48,4,47.8c1.5-2.1,3.3-3.9,5.3-5.5L37,21c0.1-0.1,0.1-0.1,0.2-0.2L53.8,8.2
				c0.2-0.1,0.4-0.3,0.6-0.4c0.2-0.1,0.4-0.3,0.6-0.4c0.4-0.3,0.8-0.5,1.2-0.8c0.6-0.4,1.2-0.7,1.8-1c0.1-0.1,0.2-0.1,0.4-0.2
				c0.1,0,0.2-0.1,0.2-0.1c0.1-0.1,0.3-0.1,0.4-0.2c0,0,0.1,0,0.1,0c0.2-0.1,0.3-0.2,0.5-0.2c0.2-0.1,0.4-0.2,0.5-0.2
				c0.2-0.1,0.4-0.2,0.5-0.2c0.1-0.1,0.3-0.1,0.4-0.2c0.2-0.1,0.5-0.2,0.7-0.3c0.2-0.1,0.3-0.1,0.5-0.2c0.2-0.1,0.3-0.1,0.5-0.2
				c0.2-0.1,0.4-0.2,0.7-0.2c0,0,0,0,0,0C63.6,3.1,63.8,3,64.1,3c0.3-0.1,0.6-0.2,0.9-0.3l0.4-0.1c0.5-0.1,1-0.3,1.5-0.4
				c0.1,0,0.3-0.1,0.5-0.1C67.7,2,68,2,68.4,1.9c0.2,0,0.4-0.1,0.6-0.1c0.3,0,0.5-0.1,0.8-0.1c0.2,0,0.4-0.1,0.6-0.1c0,0,0,0,0.1,0
				c0.2,0,0.4-0.1,0.6-0.1c0.2,0,0.3,0,0.5-0.1c0.2,0,0.4,0,0.7-0.1c0.4,0,0.9-0.1,1.3-0.1c0.2,0,0.3,0,0.5,0c0.4,0,0.8,0,1.2,0
				c0.2,0,0.5,0,0.7,0c0.2,0,0.5,0,0.7,0c0.4,0,0.8,0,1.2,0c0.2,0,0.3,0,0.5,0c0.2,0,0.4,0,0.6,0c0.2,0,0.5,0,0.7,0.1
				c0.2,0,0.4,0,0.7,0.1c0.2,0,0.3,0,0.5,0.1c0.2,0,0.3,0,0.5,0.1c0.1,0,0.1,0,0.2,0c0.2,0,0.3,0,0.5,0.1c0.2,0,0.5,0.1,0.7,0.1
				c0.2,0,0.4,0.1,0.6,0.1c0.3,0,0.5,0.1,0.8,0.2c0.2,0,0.4,0.1,0.5,0.1c0.5,0.1,1.1,0.2,1.6,0.4c0.2,0.1,0.5,0.1,0.7,0.2h0
				c0.2,0.1,0.5,0.1,0.7,0.2c0.5,0.1,0.9,0.3,1.4,0.5c0.2,0.1,0.4,0.2,0.6,0.2c0,0,0.1,0,0.1,0.1c0.2,0.1,0.4,0.2,0.6,0.2
				C90.6,4,90.8,4.1,91,4.2c0.7,0.3,1.4,0.6,2.1,1c0.2,0.1,0.3,0.2,0.5,0.3c0.2,0.1,0.5,0.3,0.7,0.4c0.4,0.2,0.8,0.5,1.2,0.7h0
				c0.4,0.3,0.8,0.5,1.2,0.8c0,0,0,0,0,0c0.4,0.3,0.8,0.6,1.2,0.8l6.2,4.8l0,0c0.4,0.3,0.7,0.7,0.9,1.2
				C105.3,14.6,105.4,15.1,105.4,15.5z"/>
			<path class="st1" d="M151.7,59.4v0.6c-0.2,5.9-3.2,11.8-9.1,16.4l-7.5,5.8l0,0l-29.6-22.7L83.6,42.6c0.2-0.5,0.5-0.9,0.9-1.2
				L111,21.2c1.1-0.9,2.7-0.9,3.9,0l27.7,21.2c2,1.5,3.8,3.4,5.3,5.5c0.2,0.2,0.3,0.4,0.4,0.7c0.4,0.6,0.8,1.2,1.1,1.8
				c0.2,0.4,0.4,0.7,0.5,1.1c0,0,0,0,0,0c0.1,0.3,0.3,0.7,0.4,1c0.1,0.2,0.1,0.4,0.2,0.6c0,0.1,0.1,0.2,0.1,0.4
				c0.1,0.2,0.1,0.5,0.2,0.7c0,0,0,0.1,0,0.1c0,0,0,0.1,0,0.1c0.1,0.3,0.1,0.5,0.2,0.8c0,0.1,0,0.2,0.1,0.2c0.1,0.3,0.1,0.5,0.2,0.8
				c0,0.1,0,0.1,0,0.2c0,0.3,0.1,0.6,0.1,0.9c0,0,0,0.1,0,0.1c0,0.1,0,0.3,0,0.5c0,0.1,0,0.3,0,0.5c0,0,0,0.1,0,0.1
				C151.7,58.7,151.7,59,151.7,59.4z"/>
			<path class="st1" d="M105.1,14.2c-0.2-0.5-0.5-0.9-0.9-1.2l0,0l-6.2-4.8c-0.4-0.3-0.8-0.6-1.2-0.9c0,0,0,0,0,0
				c-0.4-0.3-0.8-0.5-1.2-0.8h0c-0.4-0.3-0.8-0.5-1.2-0.7c-0.2-0.1-0.5-0.3-0.7-0.4c-0.2-0.1-0.3-0.2-0.5-0.3
				c-0.7-0.3-1.4-0.7-2.1-1c-0.2-0.1-0.4-0.2-0.6-0.3c-0.2-0.1-0.4-0.2-0.6-0.2c0,0-0.1,0-0.1-0.1c-0.2-0.1-0.4-0.2-0.6-0.2
				c-0.5-0.2-0.9-0.3-1.4-0.5c-0.2-0.1-0.5-0.1-0.7-0.2h0c-0.2-0.1-0.5-0.1-0.7-0.2c-0.5-0.1-1-0.3-1.6-0.4c-0.2,0-0.4-0.1-0.5-0.1
				c-0.3-0.1-0.5-0.1-0.8-0.2c-0.2,0-0.4-0.1-0.6-0.1c-0.2,0-0.5-0.1-0.7-0.1c-0.2,0-0.3,0-0.5-0.1c-0.1,0-0.1,0-0.2,0
				c-0.2,0-0.3,0-0.5-0.1c-0.2,0-0.3,0-0.5-0.1c-0.2,0-0.4,0-0.7-0.1c-0.2,0-0.5,0-0.7-0.1c-0.2,0-0.4,0-0.6,0c-0.2,0-0.3,0-0.5,0
				c-0.4,0-0.8,0-1.2,0c-0.2,0-0.5,0-0.7,0s-0.5,0-0.7,0c-0.4,0-0.8,0-1.2,0c-0.2,0-0.3,0-0.5,0c-0.4,0-0.9,0.1-1.3,0.1
				c-0.2,0-0.4,0-0.7,0.1c-0.2,0-0.3,0-0.5,0.1c-0.2,0-0.4,0-0.6,0.1l-0.1,0c-0.2,0-0.4,0.1-0.6,0.1c-0.3,0-0.5,0.1-0.8,0.1
				c-0.2,0-0.4,0.1-0.6,0.1C68,2,67.7,2,67.3,2.1c-0.2,0-0.3,0.1-0.5,0.1c-0.5,0.1-1,0.2-1.5,0.4l-0.4,0.1c-0.3,0.1-0.6,0.2-0.9,0.3
				c-0.2,0.1-0.4,0.1-0.7,0.2c0,0,0,0,0,0c-0.2,0.1-0.4,0.1-0.7,0.2c-0.2,0.1-0.3,0.1-0.5,0.2c-0.2,0.1-0.3,0.1-0.5,0.2
				C61.4,3.9,61.2,4,61,4.1c-0.1,0.1-0.3,0.1-0.4,0.2c-0.2,0.1-0.4,0.2-0.5,0.2c-0.2,0.1-0.4,0.2-0.5,0.2C59.3,4.8,59.2,4.9,59,5
				c0,0-0.1,0-0.1,0c-0.1,0.1-0.3,0.1-0.4,0.2c-0.1,0-0.2,0.1-0.2,0.1c-0.1,0.1-0.2,0.1-0.4,0.2c-0.6,0.3-1.2,0.7-1.8,1
				c-0.4,0.3-0.8,0.5-1.2,0.8c-0.4,0.3-0.8,0.6-1.2,0.9l-21,16.1L16.7,36.7v0l0.1,0l-7.4,5.7c-2,1.5-3.8,3.4-5.3,5.5
				c-0.2,0.2-0.3,0.4-0.4,0.7c-0.4,0.6-0.8,1.2-1.1,1.8c-0.2,0.4-0.4,0.7-0.5,1.1c0,0,0,0,0,0c-0.1,0.3-0.3,0.7-0.4,1
				c-0.1,0.2-0.1,0.4-0.2,0.6c0,0.1-0.1,0.2-0.1,0.4c-0.1,0.2-0.1,0.5-0.2,0.7c0,0,0,0.1,0,0.1c0,0,0,0.1,0,0.1
				c-0.1,0.3-0.1,0.5-0.2,0.8c0,0.1,0,0.2-0.1,0.2c-0.1,0.3-0.1,0.5-0.2,0.8c0,0.1,0,0.1,0,0.2c0,0.3-0.1,0.6-0.1,0.9
				c0,0,0,0.1,0,0.1c0,0.1,0,0.3,0,0.5c0,0.1,0,0.3,0,0.5c0,0,0,0.1,0,0.1c0,0.3,0,0.6,0,1v0.6c0.2,5.9,3.2,11.8,9.1,16.4l7.5,5.8
				l0,0l29.6-22.7l21.8-16.8c0,0,0-0.1,0-0.1L105.1,14.2z"/>
			<g>
				<path class="st2" d="M75.9,52.9C65.5,52.9,57,59.5,57,67.6v15.3c0,8.1,8.5,14.7,18.9,14.7s18.9-6.6,18.9-14.7V67.6
					C94.9,59.5,86.4,52.9,75.9,52.9z"/>
				<ellipse class="st1" cx="75.9" cy="67.6" rx="18.9" ry="14.7"/>
			</g>
		</g>
	</g>
</g>
</svg>
