<svg id="b7e6d4be-0271-4266-8428-993f5d19aefc" data-name="Layer 1" xmlns="http://www.w3.org/2000/svg" width="260.8566" height="64" viewBox="0 0 260.8566 64">
  <g>
    <g>
      <path d="M99.4376,38.4262H88.99l-1.8715,5.779H80.0031L91.088,14.2617h6.2313l11.126,29.9435H101.33ZM97.69,33.0381,94.2139,22.3645l-3.455,10.6736Z" style="fill: #111"/>
      <path d="M129.854,21.9532v22.252h-6.0257l-.1851-2.3445a7.1964,7.1964,0,0,1-2.5707,2.0463,7.9468,7.9468,0,0,1-3.4344.71,7.2778,7.2778,0,0,1-5.45-2.0155q-1.9743-2.0154-1.9743-6.2519V21.9532H116.63V36.39a3.0208,3.0208,0,0,0,.7914,2.2931,3.0544,3.0544,0,0,0,2.1906.7506,3.9915,3.9915,0,0,0,3.8046-1.892V21.9532Z" style="fill: #111"/>
      <path d="M145.5867,39.2077v4.8329a11.5388,11.5388,0,0,1-3.743.5759,6.9279,6.9279,0,0,1-4.9464-1.6247q-1.7172-1.6242-1.7168-5.1208V26.6216h-3.0437V21.9532h3.0437V16.4417h6.4165v5.5115h3.7223v4.6684H141.597V37.09a2.4033,2.4033,0,0,0,.5141,1.7892,2.5632,2.5632,0,0,0,1.7481.473A9.3476,9.3476,0,0,0,145.5867,39.2077Z" style="fill: #111"/>
      <path d="M148.2914,27.0329a9.4186,9.4186,0,0,1,3.6394-4.0308,12.0241,12.0241,0,0,1,11.4862,0,9.4179,9.4179,0,0,1,3.65,4.0205,13.2237,13.2237,0,0,1,1.2446,5.8509v.4319a13.2394,13.2394,0,0,1-1.2446,5.8406,9.3594,9.3594,0,0,1-3.6393,4.0206,12.0994,12.0994,0,0,1-11.4863,0,9.3464,9.3464,0,0,1-3.65-4.01,13.2122,13.2122,0,0,1-1.2446-5.8509v-.4319A13.2312,13.2312,0,0,1,148.2914,27.0329Zm6.17,10.7455A3.49,3.49,0,0,0,157.7,39.4339a3.446,3.446,0,0,0,3.1975-1.6658,8.6431,8.6431,0,0,0,.9979-4.4627v-.4319a8.723,8.723,0,0,0-.9979-4.4524,3.4679,3.4679,0,0,0-3.2387-1.6967,3.43,3.43,0,0,0-3.1975,1.6967,8.7159,8.7159,0,0,0-.9978,4.4524v.4319A8.6238,8.6238,0,0,0,154.4611,37.7784Z" style="fill: #111"/>
      <path d="M190.4607,36.3491a7.6439,7.6439,0,0,1-1.2339,4.2879,8.3477,8.3477,0,0,1-3.3522,2.9306,11.5179,11.5179,0,0,1-10.4161-.4113,9.0445,9.0445,0,0,1-3.4961-4,13.8106,13.8106,0,0,1-1.1624-5.81v-.5141a13.8817,13.8817,0,0,1,1.1624-5.82,9.0637,9.0637,0,0,1,3.4855-4.01,10.4619,10.4619,0,0,1,5.676-1.46,10.699,10.699,0,0,1,4.8642,1.0591,7.8174,7.8174,0,0,1,3.2905,3.0643,9.1712,9.1712,0,0,1,1.1821,4.74H184.435a3.9813,3.9813,0,0,0-.9148-2.653,3.1877,3.1877,0,0,0-2.54-1.0283,2.99,2.99,0,0,0-2.9714,1.635,10.4053,10.4053,0,0,0-.7921,4.473v.5141a10.2969,10.2969,0,0,0,.7921,4.4936,3.0414,3.0414,0,0,0,3.0125,1.5938,3.55,3.55,0,0,0,2.4679-.8329,2.94,2.94,0,0,0,.946-2.2519Z" style="fill: #111"/>
      <path d="M193.9881,27.0329a9.419,9.419,0,0,1,3.6393-4.0308,12.0243,12.0243,0,0,1,11.4863,0,9.4179,9.4179,0,0,1,3.65,4.0205,13.2251,13.2251,0,0,1,1.2446,5.8509v.4319a13.2408,13.2408,0,0,1-1.2446,5.8406,9.36,9.36,0,0,1-3.6394,4.0206,12.0992,12.0992,0,0,1-11.4862,0,9.3464,9.3464,0,0,1-3.65-4.01,13.2108,13.2108,0,0,1-1.2446-5.8509v-.4319A13.23,13.23,0,0,1,193.9881,27.0329Zm6.17,10.7455a3.49,3.49,0,0,0,3.2387,1.6555,3.4463,3.4463,0,0,0,3.1976-1.6658,8.6432,8.6432,0,0,0,.9978-4.4627v-.4319a8.723,8.723,0,0,0-.9978-4.4524,3.4681,3.4681,0,0,0-3.2387-1.6967,3.43,3.43,0,0,0-3.1976,1.6967,8.7159,8.7159,0,0,0-.9978,4.4524v.4319A8.6238,8.6238,0,0,0,200.1577,37.7784Z" style="fill: #111"/>
      <path d="M236.8155,12.6165V44.2052h-5.779l-.3084-2.4062a6.7491,6.7491,0,0,1-5.5733,2.8175,7.6144,7.6144,0,0,1-4.6684-1.45,8.9953,8.9953,0,0,1-2.9721-4,15.6145,15.6145,0,0,1-1.0176-5.82v-.4318a16.1442,16.1442,0,0,1,1.0176-5.964,8.7781,8.7781,0,0,1,2.9721-3.99,7.7968,7.7968,0,0,1,4.7095-1.419,6.5522,6.5522,0,0,1,5.1825,2.3856V12.6165ZM228.97,38.889a3.754,3.754,0,0,0,1.4083-1.5733v-8.473a3.61,3.61,0,0,0-3.5578-2.1183,3.1629,3.1629,0,0,0-2.9721,1.6658,9.2639,9.2639,0,0,0-.9354,4.5245v.4318a9.2459,9.2459,0,0,0,.9049,4.4422,3.12,3.12,0,0,0,2.9615,1.6452A4.14,4.14,0,0,0,228.97,38.889Z" style="fill: #111"/>
      <path d="M260.8566,35.1769h-13.964A5.2064,5.2064,0,0,0,248.6,38.2926a5.073,5.073,0,0,0,3.4139,1.1413,7.5041,7.5041,0,0,0,2.9614-.5758,5.87,5.87,0,0,0,2.324-1.7892l3.0231,3.599a9.0863,9.0863,0,0,1-3.4345,2.8072,11.59,11.59,0,0,1-5.2853,1.1414,11.9044,11.9044,0,0,1-5.9846-1.45,9.9854,9.9854,0,0,1-3.9074-3.9177,11.0794,11.0794,0,0,1-1.3574-5.4294v-.7814a13.4465,13.4465,0,0,1,1.2545-5.9126,9.6922,9.6922,0,0,1,3.63-4.0926,11.5562,11.5562,0,0,1,11.0536-.1645,8.5016,8.5016,0,0,1,3.4033,3.7841,13.4221,13.4221,0,0,1,1.1623,5.7892Zm-6.2931-4.7712a3.7522,3.7522,0,0,0-.9353-2.7044,3.66,3.66,0,0,0-2.7665-.9769q-3.27,0-3.9486,4.1954h7.65Z" style="fill: #111"/>
    </g>
    <path d="M63.52,26.1787v-.01c-.13-.4-.28-.78-.45-1.17a10.468,10.468,0,0,0-1.31-2.21,13.4861,13.4861,0,0,0-.88-1.04l-.45-.46c-.33-.32-.68-.61-1.05-.91L42.27,6.9988a14.8154,14.8154,0,0,0-3.46-2.02,15.31,15.31,0,0,0-1.61-.58,18.2287,18.2287,0,0,0-10.4,0c-.54.17-1.07.36-1.6.58a14.6149,14.6149,0,0,0-3.46,2.02L4.63,20.3788c-.36.3-.72.59-1.03.9-.1.1-.21.2-.31.31l-.18.19c-.14.14-.27.29-.38.42a10.8277,10.8277,0,0,0-1.32,1.86c-.01.02-.02.05-.03.07-.17.31-.33.62-.49.97a4.6815,4.6815,0,0,0-.18.45,4.3135,4.3135,0,0,0-.22.63c-.08.27-.16.55-.24.83,0,.02-.01.05-.01.07-.06.28-.12.57-.15.84a9.8942,9.8942,0,0,0-.09,1.38v5.73a11.3714,11.3714,0,0,0,4.51,8.55l1.92,1.78a3.8364,3.8364,0,0,0,2.49,1.03,3.7953,3.7953,0,0,0,1.18,1.56l11.58,9.06a16.6616,16.6616,0,0,0,10.27,3.35,16.6538,16.6538,0,0,0,10.26-3.35l2.51-1.96a3.8188,3.8188,0,0,0,1.47-3.02v-4.56a6.4661,6.4661,0,0,0-.2-1.22,3.3256,3.3256,0,0,0-.14-.36,3.96,3.96,0,0,0-1.14-1.45l-15.88-12.42,3.17-2.48,20.37,15.94a3.96,3.96,0,0,0,4.72,0l2.29-1.81a11.3618,11.3618,0,0,0,4.62-8.9v-5.47A10.1275,10.1275,0,0,0,63.52,26.1787Zm-21.23,20.85-2.24,1.76a13.181,13.181,0,0,1-8.1,2.59,13.19,13.19,0,0,1-8.11-2.59l-11.32-8.87,10.17-7.94a.274.274,0,0,1,.36,0Zm14.92-11.58-2.48,1.95-22.36-17.48a.5592.5592,0,0,0-.37-.13.5779.5779,0,0,0-.37.13L9.28,37.3987l-2.48-1.95a7.8384,7.8384,0,0,1-3.28-6.08,7.6373,7.6373,0,0,1,2.5-5.55.01.01,0,0,0,.01-.01c.11-.11.25-.23.36-.33.13-.11.26-.22.41-.34l17.1-13.37a11.8481,11.8481,0,0,1,3.77-1.95c.34-.11.69-.21,1.05-.29a14.4675,14.4675,0,0,1,9.6,1.1,11.8729,11.8729,0,0,1,1.79,1.14l17.1,13.38c.15.11.28.22.39.31.13.12.26.24.38.36a7.5623,7.5623,0,0,1,2.51,5.59A7.8988,7.8988,0,0,1,57.21,35.4488Z" style="fill: #111"/>
    <path d="M42.29,47.0287l-2.24,1.76a13.181,13.181,0,0,1-8.1,2.59,13.19,13.19,0,0,1-8.11-2.59l-11.32-8.87,10.17-7.94a.274.274,0,0,1,.36,0Z" style="fill: #fff"/>
    <path d="M60.49,29.4087a7.8988,7.8988,0,0,1-3.28,6.04l-2.48,1.95-22.36-17.48a.5592.5592,0,0,0-.37-.13.5779.5779,0,0,0-.37.13L9.28,37.3987l-2.48-1.95a7.8384,7.8384,0,0,1-3.28-6.08,7.6373,7.6373,0,0,1,2.5-5.55.01.01,0,0,0,.01-.01c.11-.11.25-.23.36-.33.13-.11.26-.22.41-.34l17.1-13.37a11.8481,11.8481,0,0,1,3.77-1.95c.34-.11.69-.21,1.05-.29a14.4675,14.4675,0,0,1,9.6,1.1,11.8729,11.8729,0,0,1,1.79,1.14l17.1,13.38c.15.11.28.22.39.31.13.12.26.24.38.36A7.5623,7.5623,0,0,1,60.49,29.4087Z" style="fill: #fff"/>
  </g>
</svg>
