<svg enable-background="new 0 0 500 100" viewBox="0 0 500 100" xmlns="http://www.w3.org/2000/svg"><g fill="#111"><path d="m197.7 84.3h-18.4l-3.4 10.3h-11.9l19.3-52h7.6 2.9l19.4 52h-12zm-3-9.1-6.3-19-6.2 19z"/><path d="m250.1 55.9v38.6h-10.1l-.3-4c-1.2 1.5-2.7 2.7-4.5 3.5s-3.8 1.2-6 1.2c-4 0-7.2-1.2-9.4-3.5-2.3-2.3-3.4-6-3.4-10.9v-25h10.8v25.2c0 1.9.5 3.3 1.4 4.2s2.2 1.4 3.9 1.4c3.3 0 5.6-1.2 6.9-3.5v-27.2z"/><path d="m277.3 86.2v8.1c-1.9.7-4 1-6.4 1-7.6 0-11.4-3.9-11.4-11.6v-19.9h-5.5v-7.9h5.5v-9.6h10.8v9.6h6.5v7.9h-6.5v18.7c0 1.5.3 2.6.9 3.1.6.6 1.6.8 3 .8 1.3 0 2.3 0 3.1-.2z"/><path d="m282.2 64.8c1.4-3 3.5-5.3 6.3-7s6.1-2.5 9.9-2.5c3.9 0 7.2.8 10 2.5s4.9 4 6.3 7 2.2 6.4 2.2 10.1v.8c0 3.8-.7 7.2-2.2 10.1-1.4 3-3.5 5.3-6.3 7s-6.1 2.5-9.9 2.5c-3.9 0-7.2-.8-9.9-2.5-2.8-1.7-4.9-4-6.3-7s-2.2-6.3-2.2-10.1v-.8c-.1-3.8.6-7.2 2.1-10.1zm10.4 18.8c1.2 2 3.2 3 5.8 3s4.5-1 5.8-3c1.2-2 1.8-4.7 1.8-8v-.8c0-3.3-.6-5.9-1.8-8-1.2-2-3.2-3-5.8-3s-4.5 1-5.8 3.1c-1.2 2-1.8 4.7-1.8 7.9v.8c0 3.4.6 6 1.8 8z"/><path d="m355.3 81c0 2.7-.7 5.2-2.1 7.4s-3.4 3.9-5.8 5.1-5.2 1.8-8.1 1.8c-3.9 0-7.2-.8-9.9-2.5s-4.7-4-6.1-7c-1.3-3-2-6.3-2-10.1v-.9c0-3.8.7-7.1 2-10.1s3.4-5.3 6-7 5.9-2.5 9.8-2.5c3.2 0 6 .6 8.4 1.8s4.3 3 5.7 5.3 2 5 2 8.1h-10.1c0-1.9-.6-3.5-1.7-4.7s-2.6-1.9-4.6-1.9c-2.6 0-4.4 1-5.4 2.9-1 2-1.5 4.6-1.5 7.9v.9c0 3.4.5 6.1 1.5 8s2.8 2.9 5.5 2.9c1.9 0 3.3-.5 4.5-1.5 1.1-1 1.7-2.4 1.7-4.1h10.2z"/><path d="m361.6 64.8c1.4-3 3.5-5.3 6.3-7s6.1-2.5 9.9-2.5c3.9 0 7.2.8 10 2.5s4.9 4 6.3 7 2.2 6.4 2.2 10.1v.8c0 3.8-.7 7.2-2.2 10.1-1.4 3-3.5 5.3-6.3 7s-6.1 2.5-9.9 2.5c-3.9 0-7.2-.8-9.9-2.5-2.8-1.7-4.9-4-6.3-7s-2.2-6.3-2.2-10.1v-.8c0-3.8.7-7.2 2.1-10.1zm10.5 18.8c1.2 2 3.2 3 5.8 3s4.5-1 5.8-3c1.2-2 1.8-4.7 1.8-8v-.8c0-3.3-.6-5.9-1.8-8-1.2-2-3.2-3-5.8-3s-4.5 1-5.8 3.1c-1.2 2-1.8 4.7-1.8 7.9v.8c-.1 3.4.6 6 1.8 8z"/><path d="m435.8 39.7v54.9h-9.7l-.5-4.1c-2.5 3.2-5.8 4.9-9.8 4.9-3.1 0-5.8-.8-8.1-2.5s-4-4-5.2-6.9c-1.2-3-1.8-6.3-1.8-10.1v-.9c0-3.9.6-7.4 1.8-10.4s2.9-5.3 5.2-6.9 5-2.5 8.2-2.5c3.7 0 6.7 1.4 9.2 4.2v-19.7zm-10.8 43v-14.9c-1.2-2.6-3.4-3.9-6.4-3.9-2.5 0-4.2 1-5.4 3-1.1 2-1.7 4.7-1.7 8v.8c0 3.3.6 5.9 1.7 7.9s2.9 2.9 5.3 2.9c3.1.1 5.2-1.2 6.5-3.8z"/><path d="m477.6 78.8h-24.4c.4 2.4 1.4 4.3 3 5.7s3.6 2.1 6.1 2.1c1.9 0 3.6-.4 5.2-1.1s2.9-1.8 4.1-3.2l5.2 6c-1.4 2-3.3 3.6-5.9 4.9s-5.7 2-9.2 2c-4 0-7.4-.8-10.3-2.5s-5.2-3.9-6.7-6.8c-1.6-2.9-2.3-6-2.3-9.5v-1.4c0-3.9.7-7.3 2.2-10.3s3.6-5.4 6.3-7.1 6-2.6 9.7-2.6c3.6 0 6.8.8 9.3 2.3 2.6 1.5 4.5 3.7 5.9 6.6 1.3 2.8 2 6.2 2 10.1v4.8zm-10.6-8.1c0-2.1-.6-3.8-1.7-5s-2.8-1.8-5-1.8c-2 0-3.6.7-4.8 2-1.2 1.4-1.9 3.2-2.3 5.6h13.8z"/></g><path d="m493.6 98.3v-61.6h6.4v61.6z" fill="#2c68ff"/><path d="m151.7 75c-.1 6.1-3.1 12.1-9.1 16.7l-7.5 5.8-36.2-27.7v-2.2c0-.5 0-1.1-.1-1.6 0-.2-.1-.5-.1-.7-.1-.5-.2-.9-.3-1.3 0-.2-.1-.3-.1-.5s-.1-.3-.1-.5c-.3-1-.8-2.1-1.3-3-.2-.3-.3-.6-.5-.8-.2-.3-.3-.5-.5-.8-.1-.1-.2-.3-.3-.4-.7-.9-1.4-1.8-2.3-2.6-.5-.5-1-.9-1.6-1.3-1.2-.9-2.5-1.8-3.9-2.4-.2-.1-.3-.2-.5-.2-.8-.4-1.6-.7-2.4-1-.2-.1-.3-.1-.5-.2-.1 0-.3-.1-.4-.1-.5-.1-.8-.6-.8-1v-5.2c0-1 .5-1.9 1.2-2.5l26.6-20.3c1.1-.9 2.7-.9 3.9 0l27.7 21.2c2 1.5 3.8 3.4 5.3 5.5.2.2.3.4.4.7.4.6.8 1.2 1.1 1.8.2.4.4.7.5 1.1.1.3.3.7.4 1 0 .1.1.2.1.3.1.2.1.3.2.5 0 .1 0 .1.1.2.1.2.1.5.2.7v.1.1c.1.3.1.5.2.8 0 .1 0 .2.1.2.1.3.1.5.2.8v.2c0 .3.1.6.1.9v.1.5.5.1 1 .6c.2 2.1.2 13.3.2 14.9z" fill="#0a0777"/><path d="m105.4 15.5v2.2c0 1-.5 1.9-1.2 2.5l-23.8 18.4c-1.2.9-1.9 2.3-1.9 3.8v4.8.7c0 .6-.5 1.1-1.1 1.1-.5 0-1 0-1.5 0-1.1 0-2.2.1-3.3.2-.5.1-1.1.1-1.6.2-.2 0-.4.1-.5.1-.4.1-.7.1-1.1.2-.3.1-.7.2-1 .3s-.7.2-1 .3c-.2.1-.4.1-.6.2-.7.3-1.4.5-2.1.8-.3.1-.6.3-.8.4-1.3.7-2.6 1.5-3.8 2.4-.4.3-.8.7-1.2 1-.2.2-.5.4-.7.6-1.3 1.3-2.4 2.7-3.2 4.3-.7 1.3-1.2 2.6-1.5 4-.1.4-.2.9-.3 1.3 0 .2-.1.5-.1.7 0 .4-.1 2.3-.1 3.2 0 .3-.2.6-.4.8l-35.8 27.4-7.5-5.8c-6-4.6-9.1-10.6-9.1-16.7 0-1.6 0-12.8 0-15.1v-.6c0-.3 0-.7 0-1v-.1c0-.2 0-.3 0-.5s0-.3 0-.5v-.1c0-.3.1-.6.1-.9 0-.1 0-.1 0-.2 0-.3.1-.5.2-.8 0-.1 0-.2.1-.2.1-.3.1-.5.2-.8v-.1-.1c.1-.2.1-.5.2-.7 0-.1 0-.1.1-.2.1-.2.1-.3.2-.5 0-.1.1-.2.1-.3.1-.3.3-.7.4-1 .2-.4.3-.7.5-1.1.3-.6.7-1.2 1.1-1.8.3-.1.4-.3.6-.5 1.5-2.1 3.3-3.9 5.3-5.5l27.7-21.3c.1-.1.1-.1.2-.2l16.6-12.6c.2-.1.4-.3.6-.4s.4-.3.6-.4c.4-.3.8-.5 1.2-.8.6-.4 1.2-.7 1.8-1 .1-.1.2-.1.4-.2.1 0 .2-.1.2-.1.1-.1.3-.1.4-.2h.1c.2-.1.3-.2.5-.2.2-.1.4-.2.5-.2.2-.1.4-.2.5-.2.1-.1.3-.1.4-.2.2-.1.5-.2.7-.3s.3-.1.5-.2.3-.1.5-.2.4-.2.7-.2c.2-.3.4-.4.7-.4.3-.1.6-.2.9-.3l.4-.1c.5-.1 1-.3 1.5-.4.1 0 .3-.1.5-.1.3-.1.6-.1 1-.2.2 0 .4-.1.6-.1.3 0 .5-.1.8-.1.2 0 .4-.1.6-.1h.1c.2 0 .4-.1.6-.1s.3 0 .5-.1c.2 0 .4 0 .7-.1.4 0 .9-.1 1.3-.1h.5 1.2.7.7 1.2.5.6c.2 0 .5 0 .7.1.2 0 .4 0 .7.1.2 0 .3 0 .5.1.2 0 .3 0 .5.1h.2c.2 0 .3 0 .5.1.2 0 .5.1.7.1s.4.1.6.1c.3 0 .5.1.8.2.2 0 .4.1.5.1.5.1 1.1.2 1.6.4.2.1.5.1.7.2.2.1.5.1.7.2.5.1.9.3 1.4.5.2.1.4.2.6.2 0 0 .1 0 .1.1.2.1.4.2.6.2s.4.1.6.2c.7.3 1.4.6 2.1 1 .2.1.3.2.5.3s.5.3.7.4c.4.2.8.5 1.2.7.4.3.8.5 1.2.8.4.3.8.6 1.2.8l6.2 4.8c.4.3.7.7.9 1.2.3.4.4.9.4 1.3z" fill="#0a0777"/><path d="m151.7 59.4v.6c-.2 5.9-3.2 11.8-9.1 16.4l-7.5 5.8-29.6-22.7-21.9-16.9c.2-.5.5-.9.9-1.2l26.5-20.2c1.1-.9 2.7-.9 3.9 0l27.7 21.2c2 1.5 3.8 3.4 5.3 5.5.2.2.3.4.4.7.4.6.8 1.2 1.1 1.8.2.4.4.7.5 1.1.1.3.3.7.4 1 .1.2.1.4.2.6 0 .1.1.2.1.4.1.2.1.5.2.7v.1.1c.1.3.1.5.2.8 0 .1 0 .2.1.2.1.3.1.5.2.8v.2c0 .3.1.6.1.9v.1.5.5.1c.3.2.3.5.3.9z" fill="#2c68ff"/><path d="m105.1 14.2c-.2-.5-.5-.9-.9-1.2l-6.2-4.8c-.4-.3-.8-.6-1.2-.9-.4-.3-.8-.5-1.2-.8-.4-.3-.8-.5-1.2-.7-.2-.1-.5-.3-.7-.4s-.3-.2-.5-.3c-.7-.3-1.4-.7-2.1-1-.2-.1-.4-.2-.6-.3s-.4-.2-.6-.2c0 0-.1 0-.1-.1-.2-.1-.4-.2-.6-.2-.5-.2-.9-.3-1.4-.5-.2-.1-.5-.1-.7-.2-.2-.1-.5-.1-.7-.2-.5-.1-1-.3-1.6-.4-.2 0-.4-.1-.5-.1-.3-.1-.5-.1-.8-.2-.2 0-.4-.1-.6-.1s-.5-.1-.7-.1-.3 0-.5-.1c-.1 0-.1 0-.2 0-.2 0-.3 0-.5-.1-.2 0-.3 0-.5-.1-.2 0-.4 0-.7-.1-.2 0-.5 0-.7-.1-.2 0-.4 0-.6 0s-.3 0-.5 0c-.4 0-.8 0-1.2 0-.2 0-.5 0-.7 0s-.5 0-.7 0c-.4 0-.8 0-1.2 0-.2 0-.3 0-.5 0-.4 0-.9.1-1.3.1-.2 0-.4 0-.7.1-.2 0-.3 0-.5.1-.2 0-.4 0-.6.1h-.1c-.2 0-.4.1-.6.1-.3 0-.5.1-.8.1-.2 0-.4.1-.6.1-.5.3-.8.3-1.2.4-.2 0-.3.1-.5.1-.5.1-1 .2-1.5.4l-.4.1c-.3.1-.6.2-.9.3-.2.1-.4.1-.7.2-.2.1-.4.1-.7.2-.2.1-.3.1-.5.2s-.3.1-.5.2-.4.2-.6.3c-.1.1-.3.1-.4.2-.2.1-.4.2-.5.2-.2.1-.4.2-.5.2-.3.1-.4.2-.6.3h-.1c-.1.1-.3.1-.4.2-.1 0-.2.1-.2.1-.1.1-.2.1-.4.2-.6.3-1.2.7-1.8 1-.4.3-.8.5-1.2.8s-.8.6-1.2.9l-21 16.1-16 12.4h.1l-7.4 5.7c-2 1.5-3.8 3.4-5.3 5.5-.2.2-.3.4-.4.7-.4.6-.8 1.2-1.1 1.8-.2.4-.4.7-.5 1.1-.1.3-.3.7-.4 1-.1.2-.1.4-.2.6 0 .1-.1.2-.1.4-.1.2-.1.5-.2.7v.1.1c-.1.3-.1.5-.2.8 0 .1 0 .2-.1.2-.1.3-.1.5-.2.8v.2c0 .3-.1.6-.1.9v.1.5.5.1 1 .6c.2 5.9 3.2 11.8 9.1 16.4l7.5 5.8 29.6-22.7 21.8-16.8v-.1z" fill="#2c68ff"/><path d="m75.9 52.9c-10.4 0-18.9 6.6-18.9 14.7v15.3c0 8.1 8.5 14.7 18.9 14.7s18.9-6.6 18.9-14.7v-15.3c.1-8.1-8.4-14.7-18.9-14.7z" fill="#0a0777"/><ellipse cx="75.9" cy="67.6" fill="#2c68ff" rx="18.9" ry="14.7"/></svg>