<svg height="19" viewBox="0 0 180 19" width="180" xmlns="http://www.w3.org/2000/svg"><g fill="#c11c1f" fill-rule="evenodd"><path d="m0 0v17.9086027h3.79838561v-7.2613312h7.34836589v-3.36296144h-7.34836589v-3.83173092h8.02594099v-3.45257914z"/><path d="m21.0662694 0-6.6019837 17.9086027h4.2042309l1.312-3.8983697h6.9413543l1.312 3.8983697h4.2053971l-6.6031499-17.9086027zm2.3977528 3.76509213 2.3720959 7.06026587h-4.7698487z"/><path d="m46.6753734 4.65552435c-1.2665173-.80196347-2.4875519-1.20294521-3.595463-1.20294521-1.4694399 0-2.3522701.82494237-2.3522701 1.87163109 0 1.17996631.8151893 1.5591181 2.3067875 2.04971753 3.1651269 1.02370982 5.4497562 2.13818628 5.4497562 5.52412664 0 3.184875-2.5551928 5.724043-6.6474664 5.724043-2.0583821 0-3.9126754-.5560893-5.6760033-1.6475868l1.1312355-3.3641104c1.5149226 1.0696676 3.028679 1.5591181 4.4083198 1.5591181 1.5604053 0 2.9400461-.6905159 2.9400461-2.0049087 0-1.1581364-.8595058-1.7590345-3.007687-2.4943592-2.577351-.86860227-4.724366-2.02673863-4.724366-5.14612378 0-3.0952573 2.440903-5.52412662 6.0585242-5.52412662 1.8997759 0 3.3237332.57906818 4.5902504 1.27073295z"/><path d="m61.1461398 17.9086027h-3.8205438v-14.45717251h-5.4952389v-3.45143019h14.8098554v3.45143019h-5.4940727z"/><path d="m85.4669518 17.3295345c-1.8764515.8915812-3.7529029 1.2925629-5.8334433 1.2925629-6.556501 0-9.7227942-4.4774379-9.7227942-9.28921875 0-5.70221307 4.2963625-9.33287865 9.700636-9.33287865 2.0793741 0 4.1144318.60089813 5.8556015 1.71422565l-1.2431928 3.43074919c-.5201351-.44579059-1.9452586-1.69354465-4.5902505-1.69354465-3.8205438 0-5.9010842 2.65176462-5.9010842 5.85961851 0 3.1182362 1.9440924 5.8584696 6.1494895 5.8584696 2.8269226 0 4.7033741-1.2477541 5.585038-1.8268223z"/><path d="m98.5798522 15.1695183c3.4368568 0 5.5628798-2.873511 5.5628798-5.8584696s-2.126023-5.85846956-5.5628798-5.85846956-5.5628798 2.87351096-5.5628798 5.85846956 2.126023 5.8584696 5.5628798 5.8584696m0-15.1695183c5.1768598 0 9.3834238 3.76394318 9.3834238 9.3110487 0 5.5689355-4.228722 9.3110487-9.3834238 9.3110487-5.1325438 0-9.3834236-3.6973044-9.3834236-9.3110487 0-5.59191437 4.2508798-9.3110487 9.3834236-9.3110487"/><path d="m115.918758 14.4571725h2.464228c2.668316 0 6.422385 0 6.422385-5.50229669 0-5.48046672-3.776227-5.50229667-6.309262-5.50229667h-2.577351zm-3.820544-14.4571725h7.438165c6.557668 0 9.089536 4.23271266 9.089536 8.95487581 0 4.81178089-2.554027 8.95487579-9.202659 8.95487579h-7.325042z"/><path d="m132.589286 17.9086027h3.843868v-17.9086027h-3.843868z"/><path d="m146.459698 0 7.959467 12.1845597v-12.1845597h3.82171v17.9086027h-4.228722l-7.959466-12.18455968v12.18455968h-3.820544v-17.9086027z"/><path d="m178.098687 5.12314489c-.565617-.40098174-2.374428-1.67056575-5.268991-1.67056575-4.340679 0-6.284772 2.82870211-6.284772 5.90327841 0 2.38291155 1.221035 5.81366075 6.330254 5.81366075 1.492765 0 2.283463-.2895341 2.872405-.5124294v-3.3859404h-4.04679v-3.29632261h7.799693v9.31104871c-1.899775.8019635-4.092273 1.3362228-6.625308 1.3362228-6.804906 0-10.151964-4.5440767-10.151964-9.33287865 0-5.54710552 4.296363-9.28921875 10.084323-9.28921875 2.396587 0 4.477127.57906818 6.579826 1.73720455z"/></g></svg>