<svg width="121" height="30" viewBox="0 0 121 30" fill="none" xmlns="http://www.w3.org/2000/svg">
<path d="M3.20193 24H1.05993C0.6746 24 0.481934 23.8074 0.481934 23.422V2.71602C0.481934 2.33069 0.6746 2.13802 1.05993 2.13802H11.7359C12.1213 2.13802 12.3139 2.33069 12.3139 2.71602V4.45002C12.3139 4.83536 12.1213 5.02802 11.7359 5.02802H4.18793C3.91593 5.02802 3.77993 5.14136 3.77993 5.36802V11.794C3.77993 12.0434 3.91593 12.168 4.18793 12.168H10.7499C11.1579 12.168 11.3619 12.3607 11.3619 12.746V14.446C11.3619 14.854 11.1579 15.058 10.7499 15.058H4.18793C3.91593 15.058 3.77993 15.1714 3.77993 15.398V23.422C3.77993 23.8074 3.58727 24 3.20193 24Z" fill="#FFA70B"/>
<path d="M18.4714 24H16.3294C15.9441 24 15.7514 23.8074 15.7514 23.422V0.676021C15.7514 0.290689 15.9441 0.0980225 16.3294 0.0980225H18.4714C18.8567 0.0980225 19.0494 0.290689 19.0494 0.676021V23.422C19.0494 23.8074 18.8567 24 18.4714 24Z" fill="#FFA70B"/>
<path d="M29.7729 24H28.4469C26.7696 24 25.4663 23.5354 24.5369 22.606C23.6303 21.6767 23.1769 20.3847 23.1769 18.73V11.93C23.1769 10.2527 23.6303 8.96069 24.5369 8.05402C25.4663 7.12469 26.7696 6.66002 28.4469 6.66002H36.0629C36.4709 6.66002 36.6749 6.85269 36.6749 7.23802V23.422C36.6749 23.8074 36.4709 24 36.0629 24H33.9209C33.5356 24 33.3429 23.8074 33.3429 23.422V22.198H33.2069C32.6629 23.3994 31.5183 24 29.7729 24ZM33.3429 18.22V9.89002C33.3429 9.66336 33.2183 9.55002 32.9689 9.55002H28.9229C27.2909 9.55002 26.4749 10.3887 26.4749 12.066V18.594C26.4749 20.2714 27.2909 21.11 28.9229 21.11H30.5549C32.4136 21.11 33.3429 20.1467 33.3429 18.22Z" fill="#FFA70B"/>
<path d="M41.4254 9.55002H39.7934C39.5667 9.55002 39.408 9.51602 39.3174 9.44802C39.2494 9.35736 39.2154 9.21002 39.2154 9.00602V7.23802C39.2154 6.85269 39.408 6.66002 39.7934 6.66002H41.4254C41.652 6.66002 41.7654 6.54669 41.7654 6.32002V3.26002C41.7654 2.87469 41.9694 2.68202 42.3774 2.68202H44.5194C44.9047 2.68202 45.0974 2.87469 45.0974 3.26002V6.32002C45.0974 6.54669 45.222 6.66002 45.4714 6.66002H48.6334C49.0414 6.66002 49.2454 6.85269 49.2454 7.23802V9.00602C49.2454 9.36869 49.0414 9.55002 48.6334 9.55002H45.4714C45.222 9.55002 45.0974 9.66336 45.0974 9.89002V18.628C45.0974 20.2827 45.9474 21.11 47.6474 21.11H48.9734C49.3814 21.11 49.5854 21.3027 49.5854 21.688V23.456C49.5854 23.8187 49.3814 24 48.9734 24H47.1374C45.46 24 44.1454 23.5467 43.1934 22.64C42.2414 21.7334 41.7654 20.4527 41.7654 18.798V9.89002C41.7654 9.66336 41.652 9.55002 41.4254 9.55002Z" fill="#FFA70B"/>
<path d="M55.7253 24H53.5833C53.198 24 53.0053 23.8074 53.0053 23.422V0.676021C53.0053 0.290689 53.198 0.0980225 53.5833 0.0980225H55.7253C56.1106 0.0980225 56.3033 0.290689 56.3033 0.676021V23.422C56.3033 23.8074 56.1106 24 55.7253 24Z" fill="#FFA70B"/>
<path d="M68.6928 24H65.7008C64.0235 24 62.7202 23.5354 61.7908 22.606C60.8842 21.6767 60.4308 20.3847 60.4308 18.73V11.93C60.4308 10.2527 60.8842 8.96069 61.7908 8.05402C62.7202 7.12469 64.0235 6.66002 65.7008 6.66002H68.6928C70.3475 6.66002 71.6395 7.12469 72.5688 8.05402C73.5208 8.96069 73.9968 10.2527 73.9968 11.93V18.73C73.9968 20.3847 73.5208 21.6767 72.5688 22.606C71.6395 23.5354 70.3475 24 68.6928 24ZM66.1768 21.11H68.2508C69.8828 21.11 70.6988 20.2827 70.6988 18.628V12.032C70.6988 10.3774 69.8828 9.55002 68.2508 9.55002H66.1768C65.3155 9.55002 64.6922 9.75402 64.3068 10.162C63.9215 10.5474 63.7288 11.1707 63.7288 12.032V18.628C63.7288 19.4894 63.9215 20.124 64.3068 20.532C64.6922 20.9174 65.3155 21.11 66.1768 21.11Z" fill="#FFA70B"/>
<path d="M84.2277 23.15H82.6977C81.0657 23.15 79.8077 22.6967 78.9237 21.79C78.0623 20.8607 77.6317 19.5574 77.6317 17.88V11.93C77.6317 10.2527 78.0963 8.96069 79.0257 8.05402C79.955 7.12469 81.247 6.66002 82.9016 6.66002H90.5177C90.9257 6.66002 91.1297 6.85269 91.1297 7.23802V24.068C91.1297 25.7227 90.6537 27.0034 89.7017 27.91C88.7723 28.8394 87.4803 29.304 85.8257 29.304H79.4337C79.0483 29.304 78.8557 29.1227 78.8557 28.76V26.992C78.8557 26.6067 79.0483 26.414 79.4337 26.414H85.3157C86.9703 26.414 87.7977 25.5754 87.7977 23.898V21.314H87.6617C87.095 22.538 85.9503 23.15 84.2277 23.15ZM87.7977 17.37V9.89002C87.7977 9.66336 87.673 9.55002 87.4237 9.55002H83.3777C81.7683 9.55002 80.9637 10.3887 80.9637 12.066V17.71C80.9637 19.3874 81.7683 20.226 83.3777 20.226H85.0097C86.8683 20.226 87.7977 19.274 87.7977 17.37Z" fill="#FFA70B"/>
<path d="M95.5385 3.77002V0.676021C95.5385 0.313355 95.7198 0.132022 96.0825 0.132022H98.2925C98.6552 0.132022 98.8365 0.313355 98.8365 0.676021V3.77002C98.8365 4.15536 98.6552 4.34802 98.2925 4.34802H96.0825C95.7198 4.34802 95.5385 4.15536 95.5385 3.77002ZM95.5385 23.422V7.23802C95.5385 6.85269 95.7198 6.66002 96.0825 6.66002H98.2585C98.6438 6.66002 98.8365 6.85269 98.8365 7.23802V23.422C98.8365 23.6487 98.7912 23.8074 98.7005 23.898C98.6325 23.966 98.4965 24 98.2925 24H96.1165C95.7312 24 95.5385 23.8074 95.5385 23.422Z" fill="#FFA70B"/>
<path d="M113.844 21.688V23.456C113.844 23.8187 113.64 24 113.232 24H108.234C106.557 24 105.253 23.5354 104.324 22.606C103.417 21.6767 102.964 20.3847 102.964 18.73V11.93C102.964 10.2527 103.417 8.96069 104.324 8.05402C105.253 7.12469 106.557 6.66002 108.234 6.66002H113.232C113.64 6.66002 113.844 6.85269 113.844 7.23802V9.00602C113.844 9.36869 113.64 9.55002 113.232 9.55002H108.71C107.078 9.55002 106.262 10.3887 106.262 12.066V18.594C106.262 20.2714 107.078 21.11 108.71 21.11H113.232C113.64 21.11 113.844 21.3027 113.844 21.688Z" fill="#FFA70B"/>
<path d="M120.041 19.274V23.422C120.041 23.8074 119.86 24 119.497 24H117.185C116.8 24 116.607 23.8074 116.607 23.422V19.274C116.607 18.9114 116.8 18.73 117.185 18.73H119.497C119.86 18.73 120.041 18.9114 120.041 19.274Z" fill="#FFA70B"/>
</svg>
