<?xml version="1.0" encoding="UTF-8" standalone="no"?>
<svg width="143px" height="30px" viewBox="0 0 143 30" version="1.1" xmlns="http://www.w3.org/2000/svg" xmlns:xlink="http://www.w3.org/1999/xlink">
    <!-- Generator: Sketch 3.8.3 (29802) - http://www.bohemiancoding.com/sketch -->
    <title>Group</title>
    <desc>Created with Sketch.</desc>
    <defs>
        <polygon id="path-1" points="0 0.0291891892 26.5351622 0.0291891892 26.5351622 29.1891892 0 29.1891892"></polygon>
    </defs>
    <g id="Page-1" stroke="none" stroke-width="1" fill="none" fill-rule="evenodd">
        <g id="logo" transform="translate(-20.000000, -28.000000)">
            <g id="Page-1">
                <g id="Artboard-1">
                    <g id="Group" transform="translate(20.000000, 28.000000)">
                        <g id="Logo">
                            <g id="mask-2" fill="#FFFFFF">
                                <polygon id="path-1" points="0 0.0291891892 26.5351622 0.0291891892 26.5351622 29.1891892 0 29.1891892"></polygon>
                            </g>
                            <g id="Fill-1-Clipped">
                                <mask id="mask-2" fill="white">
                                    <use xlink:href="#path-1"></use>
                                </mask>
                                <g id="path-1"></g>
                                <path d="M25.2107027,5.73786486 L7.95259459,22.8981892 L6.67045946,21.6233514 L25.2107027,3.186 L25.2107027,5.73786486 L25.2107027,5.73786486 L25.2107027,5.73786486 Z M12.3988378,27.3203514 L11.1152432,26.0440541 L21.8853243,15.3338108 L21.8955405,15.3235946 L21.8955405,17.8761892 L12.3988378,27.3203514 L12.3988378,27.3203514 L12.3988378,27.3203514 Z M8.89321622,23.832973 L20.9111351,11.8821892 L23.1747568,9.60324324 L23.1747568,12.1558378 L22.3180541,13.0234865 L21.8955405,13.4525676 L21.7452162,13.6043514 L10.1753514,25.1085405 L8.89321622,23.832973 L8.89321622,23.832973 L8.89321622,23.832973 Z M25.2107027,1.31789189 L17.2551892,9.22743243 L3.70118919,9.22743243 L0,16.8589459 L4.79067568,21.6233514 L5.73056757,22.5566757 L7.0127027,23.832973 L7.95259459,24.767027 L9.23618919,26.0440541 L12.3988378,29.1891892 L23.2134324,18.4351622 L23.2134324,13.5861081 L24.4999459,12.2791622 L24.4999459,8.28535135 L25.2107027,7.60743243 L26.5351622,6.28954054 L26.5351622,0 L25.2107027,1.31789189 L25.2107027,1.31789189 L25.2107027,1.31789189 Z" id="Fill-1" fill="#EC1923" mask="url(#mask-2)"></path>
                            </g>
                        </g>
                        <path d="M51.275,9.5 L48.05,9.5 L43.1,19.5 L38.15,9.5 L34.925,9.5 L34.925,27 L38.275,27 L38.275,16.25 L41.55,22.75 L44.65,22.75 L47.925,16.25 L47.925,27 L51.275,27 L51.275,9.5 L51.275,9.5 Z M60.5291667,27.3 C64.4291667,27.3 66.6541667,24.75 66.6541667,21.425 L66.6541667,19.575 C66.6541667,16.25 64.4291667,13.7 60.5291667,13.7 C56.6291667,13.7 54.4041667,16.25 54.4041667,19.575 L54.4041667,21.425 C54.4041667,24.75 56.6291667,27.3 60.5291667,27.3 L60.5291667,27.3 L60.5291667,27.3 Z M63.3541667,21.65 C63.3541667,23.35 62.4541667,24.625 60.5291667,24.625 C58.6041667,24.625 57.7041667,23.35 57.7041667,21.65 L57.7041667,19.35 C57.7041667,17.65 58.6041667,16.375 60.5291667,16.375 C62.4541667,16.375 63.3541667,17.65 63.3541667,19.35 L63.3541667,21.65 L63.3541667,21.65 Z M69.5333333,27 L72.9333333,27 L72.9333333,19.3 C72.9333333,17.55 73.9083333,16.65 75.4333333,16.65 C77.0833333,16.65 77.8083333,17.725 77.8083333,19.225 L77.8083333,27 L81.208333,27 L81.208333,18.675 C81.208333,15.55 79.4333333,13.7 76.6083333,13.7 C74.7583333,13.7 73.4333333,14.35 72.7833333,15.55 L72.7833333,14 L69.5333333,14 L69.5333333,27 L69.5333333,27 Z M88.9375,27 L91.2875,27 L91.2875,24.25 L89.9125,24.25 C89.0125,24.25 88.6875,23.9 88.6875,23.05 L88.6875,16.75 L91.4625,16.75 L91.4625,14 L88.6875,14 L88.6875,10.45 L85.2625,10.45 L85.2625,14 L83.4125,14 L83.4125,16.75 L85.2625,16.75 L85.2625,23.3 C85.2625,25.6 86.4375,27 88.9375,27 L88.9375,27 L88.9375,27 Z M99.591667,27.3 C102.466667,27.3 104.791667,25.575 105.241667,23.2 L102.266667,23.2 C101.941667,24.1 101.041667,24.85 99.591667,24.85 C97.616667,24.85 96.841667,23.525 96.841667,22 L96.841667,21.675 L105.341667,21.675 L105.341667,19.4 C105.341667,16.275 103.391667,13.7 99.541667,13.7 C95.641667,13.7 93.541667,16.2 93.541667,19.725 L93.541667,21.5 C93.541667,25.15 95.916667,27.3 99.591667,27.3 L99.591667,27.3 L99.591667,27.3 Z M96.841667,19.15 C96.841667,17.4 97.591667,16.1 99.541667,16.1 C101.366667,16.1 102.216667,17.325 102.216667,18.95 L102.216667,19.275 L96.841667,19.275 L96.841667,19.15 L96.841667,19.15 Z M108.220833,27 L111.620833,27 L111.620833,21 C111.620833,18.375 112.820833,17.275 115.045833,17.275 L115.745833,17.275 L115.745833,13.9 L115.345833,13.9 C113.395833,13.9 111.870833,14.575 111.445833,16.525 L111.445833,14 L108.220833,14 L108.220833,27 L108.220833,27 Z M122,27.3 C123.5,27.3 125.15,26.675 125.75,25.8 L125.75,27 L129.025,27 L129.025,18.7 C129.025,15.675 126.8,13.7 123.55,13.7 C120.75,13.7 118.725,15.05 117.975,17.575 L121.125,17.575 C121.475,16.875 122.2,16.35 123.375,16.35 C124.775,16.35 125.625,17.25 125.625,18.45 L125.625,20.225 C125.025,19.725 123.875,19.125 122.325,19.125 C119.2,19.125 117.075,20.425 117.075,23.25 C117.075,25.775 119.075,27.3 122,27.3 L122,27.3 L122,27.3 Z M122.875,25.05 C121.45,25.05 120.375,24.35 120.375,23.15 C120.375,21.95 121.375,21.3 122.975,21.3 C124.5,21.3 125.625,21.975 125.625,23.125 C125.625,24.225 124.375,25.05 122.875,25.05 L122.875,25.05 L122.875,25.05 Z M132.429167,27 L135.829167,27 L135.829167,14 L132.429167,14 L132.429167,27 L132.429167,27 Z M132.154167,10.6 C132.154167,11.725 132.979167,12.575 134.129167,12.575 C135.279167,12.575 136.104167,11.725 136.104167,10.6 C136.104167,9.475 135.279167,8.625 134.129167,8.625 C132.979167,8.625 132.154167,9.475 132.154167,10.6 L132.154167,10.6 L132.154167,10.6 Z M139.433333,27 L142.833333,27 L142.833333,8.75 L139.433333,8.75 L139.433333,27 L139.433333,27 Z" id="Monterail" fill="#EC1923"></path>
                    </g>
                </g>
            </g>
        </g>
    </g>
</svg>