<svg id="Layer_1" data-name="Layer 1" xmlns="http://www.w3.org/2000/svg" xmlns:xlink="http://www.w3.org/1999/xlink" viewBox="0 0 1366 768"><defs><style>.cls-1{fill:url(#linear-gradient);}</style><linearGradient id="linear-gradient" x1="581.15" y1="379.68" x2="88.02" y2="379.68" gradientUnits="userSpaceOnUse"><stop offset="0" stop-color="#4a1682"/><stop offset="0.15" stop-color="#bb1351"/><stop offset="0.25" stop-color="#e6374f"/><stop offset="0.5" stop-color="#fc0"/><stop offset="0.75" stop-color="#e6374f"/><stop offset="0.85" stop-color="#bb1351"/><stop offset="1" stop-color="#4a1682"/></linearGradient></defs><path class="cls-1" d="M576.35,544.57,365.27,179.43c-6.82-11.8-18.75-17.45-30.69-17.73a35.12,35.12,0,0,0-30.69,17.7L92.81,544.54c-13.63,23.59,3.41,53.07,30.68,53.07l210.84-65.36.24.08v0l.26-.08,210.83,65.37C572.94,597.65,590,568.16,576.35,544.57ZM419.05,444.46c-46.32,16-12.48,56.76-12.48,56.76h-72v0H262.37s33.83-40.77-12.49-56.76S226.64,396,226.64,396L334.58,274.11l107.72,122S465.37,428.47,419.05,444.46Z"/><path d="M760.64,397.05H621.15l-30,66.88H563.57L678,213.57h26.11L818.59,463.93h-27.9ZM751,375.59,690.9,241.11,630.81,375.59Z"/><path d="M825.38,338.75c0-73.32,55.79-127.33,131.26-127.33,36.48,0,69.39,12.16,91.56,36.48l-16.81,16.81C1011,244,986,235,957.36,235c-60.45,0-105.87,44.35-105.87,103.72s45.42,103.72,105.87,103.72c28.61,0,53.65-8.94,74-30l16.81,16.81c-22.17,24.32-55.08,36.84-91.92,36.84C881.17,466.08,825.38,412.07,825.38,338.75Z"/><path d="M1272.81,441v22.89h-177V213.57h171.68v22.89H1122.23v89.06h129.48v22.53H1122.23v93Z"/><path d="M652.24,527.9c0-14.52,11.08-25.32,25.82-25.32S704,513.38,704,527.9s-11.09,25.32-25.9,25.32S652.24,542.42,652.24,527.9Zm49.28,0c0-13.23-10.08-23.11-23.46-23.11s-23.39,9.88-23.39,23.11S664.76,551,678.06,551,701.52,541.13,701.52,527.9Z"/><path d="M755.39,502.86v50.08h-2L717.83,507.3v45.64H715.4V502.86h2L753,548.5V502.86Z"/><path d="M771.91,502.86h2.43v47.86h29.33v2.22H771.91Z"/><path d="M811.75,502.86h2.43v50.08h-2.43Z"/><path d="M870.69,502.86v50.08h-2L833.14,507.3v45.64h-2.43V502.86h2l35.55,45.64V502.86Z"/><path d="M921.05,550.72v2.22H887.22V502.86h32.83v2.22h-30.4V526.4h27.18v2.21H889.65v22.11Z"/><path d="M944.44,527.9c0-14.52,11.09-25.32,25.82-25.32,6.8,0,13,2.21,17.39,6.65l-1.51,1.57c-4.43-4.29-9.87-6-15.8-6-13.38,0-23.47,10-23.47,23.11S957,551,970.34,551a21.84,21.84,0,0,0,15.8-6.08l1.51,1.58c-4.37,4.5-10.59,6.72-17.39,6.72C955.53,553.22,944.44,542.42,944.44,527.9Z"/><path d="M1028.06,538.27h-30l-6.72,14.67h-2.65l23.18-50.08h2.36l23.17,50.08h-2.64Zm-.93-2.07-14-30.55L999,536.2Z"/><path d="M1040.15,546.28l1.29-1.71c3.22,3.64,9.58,6.51,16.52,6.51,10.52,0,15.17-4.8,15.17-10.59,0-16-31.55-6.51-31.55-25,0-6.72,5.15-12.87,17.1-12.87a25.59,25.59,0,0,1,14.8,4.57l-1.07,1.94a23.74,23.74,0,0,0-13.66-4.37c-10.16,0-14.81,4.87-14.81,10.73,0,16.1,31.55,6.8,31.55,25,0,6.79-5.37,12.8-17.46,12.8C1050.67,553.22,1043.66,550.36,1040.15,546.28Z"/><path d="M1086.79,502.86h2.43v50.08h-2.43Z"/><path d="M1145.73,502.86v50.08h-2l-35.55-45.64v45.64h-2.44V502.86h2l35.55,45.64V502.86Z"/><path d="M1157.17,527.9c0-14.52,11.09-25.32,25.83-25.32s25.89,10.8,25.89,25.32-11.09,25.32-25.89,25.32S1157.17,542.42,1157.17,527.9Zm49.29,0c0-13.23-10.09-23.11-23.46-23.11s-23.39,9.88-23.39,23.11S1169.69,551,1183,551,1206.46,541.13,1206.46,527.9Z"/></svg>