<svg enable-background="new 0 0 181.2 45.8" viewBox="0 0 181.2 45.8" xmlns="http://www.w3.org/2000/svg"><path d="m9.2 6.8h26.6v31.9h-26.6z" fill="#fff"/><g fill="#28557a"><path d="m16.4 30.6c-1.3 0-2.4 1-2.5 2.4s1 2.4 2.4 2.4c1.3 0 2.4-1 2.5-2.3 0-1.4-1.1-2.5-2.4-2.5z"/><path d="m18.8 12.9c0-1.3-1.1-2.4-2.4-2.4s-2.4 1.1-2.4 2.4 1 2.4 2.3 2.4h.1c1.3 0 2.4-1.1 2.4-2.4z"/><path d="m24.2 14.5h-2.6c-.5 1.8-1.9 3.2-3.7 3.7v5.2h9.1c.5 0 .9-.3.9-.8 0-.1 0-.1 0-.2v-4.2c-1.8-.5-3.2-1.9-3.7-3.7z"/><path d="m29.5 10.5c-1.3 0-2.4 1.1-2.4 2.4s1.1 2.4 2.4 2.4 2.4-1 2.4-2.3c0 0 0 0 0-.1 0-1.3-1.1-2.4-2.4-2.4z"/><path d="m22.9 0c-12.6 0-22.9 10.3-22.9 22.9s10.3 22.9 22.9 22.9 22.9-10.3 22.9-22.9-10.3-22.8-22.9-22.9zm8.2 18.3v4.2c0 2.2-1.8 4.1-4 4.1h-.1-9v1.1c2.3.7 3.9 2.9 3.9 5.3 0 3-2.5 5.5-5.5 5.5s-5.5-2.5-5.5-5.5c0-2.4 1.6-4.6 3.9-5.3v-9.5c-2.3-.7-3.9-2.9-3.9-5.3 0-3 2.5-5.5 5.5-5.5 2.4 0 4.6 1.6 5.3 3.9h2.6c.7-2.3 2.9-3.9 5.3-3.9 3 0 5.5 2.5 5.5 5.5 0 2.5-1.6 4.6-4 5.4z"/><path d="m60 33.2h-10.6v-2.6h10.6z"/><path d="m72.8 24.4c0 2-.4 3.5-1.3 4.7s-2.1 1.8-3.6 1.8c-1.3 0-2.3-.4-3.1-1.3v6h-3.4v-17.7h3.1l.1 1.2c.8-1 1.9-1.5 3.2-1.5 1.6 0 2.8.6 3.6 1.7s1.3 2.8 1.3 4.8v.3zm-3.4-.3c0-1.2-.2-2.1-.6-2.7s-1-1-1.8-1c-1.1 0-1.8.4-2.2 1.2v5.2c.4.8 1.2 1.3 2.2 1.3 1.6 0 2.4-1.3 2.4-4z"/><path d="m82.5 29.3c-.8 1-2 1.5-3.5 1.5-1.4 0-2.4-.4-3.1-1.2s-1.1-1.9-1.1-3.4v-8.3h3.4v8.2c0 1.3.6 2 1.8 2 1.1 0 1.9-.4 2.4-1.2v-9h3.4v12.7h-3.2z"/><path d="m91.9 30.6h-3.4v-18h3.4z"/><path d="m98.2 30.6h-3.4v-18h3.4z"/><path d="m108.2 21.1c-.5-.1-.9-.1-1.2-.1-1.3 0-2.1.4-2.5 1.3v8.3h-3.5v-12.7h3.2l.1 1.5c.7-1.2 1.6-1.7 2.8-1.7.4 0 .7.1 1.1.2z"/><path d="m115.4 30.8c-1.9 0-3.4-.6-4.5-1.7s-1.8-2.7-1.8-4.6v-.3c0-1.3.2-2.4.7-3.4s1.2-1.8 2.1-2.3 1.9-.8 3.1-.8c1.7 0 3.1.5 4.1 1.6s1.5 2.6 1.5 4.7v1.4h-8.1c.1.8.4 1.5 1 2s1.2.8 2.1.8c1.3 0 2.3-.5 3.1-1.4l1.7 1.9c-.5.7-1.2 1.3-2.1 1.7s-1.8.4-2.9.4zm-.4-10.4c-.7 0-1.2.2-1.6.7s-.7 1.1-.8 2h4.7v-.3c0-.8-.2-1.3-.6-1.7-.4-.5-1-.7-1.7-.7z"/><path d="m122 24.1c0-2 .4-3.6 1.3-4.7s2.1-1.7 3.7-1.7c1.4 0 2.4.5 3.2 1.6l.2-1.3h3v17.6h-3.4v-6c-.8.9-1.8 1.3-3.1 1.3-1.5 0-2.7-.6-3.6-1.8s-1.3-2.8-1.3-5zm3.4.3c0 1.2.2 2.1.6 2.8s1 1 1.8 1c1 0 1.8-.4 2.2-1.2v-5.2c-.4-.8-1.1-1.2-2.2-1.2-.8 0-1.4.3-1.8 1s-.6 1.4-.6 2.8z"/><path d="m143.7 29.3c-.8 1-2 1.5-3.5 1.5-1.4 0-2.4-.4-3.1-1.2s-1.1-1.9-1.1-3.4v-8.3h3.4v8.2c0 1.3.6 2 1.8 2 1.1 0 1.9-.4 2.4-1.2v-9h3.4v12.7h-3.2z"/><path d="m155.4 30.8c-1.9 0-3.4-.6-4.5-1.7s-1.8-2.7-1.8-4.6v-.3c0-1.3.2-2.4.7-3.4s1.2-1.8 2.1-2.3 1.9-.8 3.1-.8c1.7 0 3.1.5 4.1 1.6s1.5 2.6 1.5 4.7v1.4h-8.1c.1.8.4 1.5 1 2s1.2.8 2.1.8c1.3 0 2.3-.5 3.1-1.4l1.7 1.9c-.5.7-1.2 1.3-2.1 1.7s-1.9.4-2.9.4zm-.4-10.4c-.7 0-1.2.2-1.6.7s-.7 1.1-.8 2h4.7v-.3c0-.8-.2-1.3-.6-1.7-.5-.5-1-.7-1.7-.7z"/><path d="m169.4 27.1c0-.4-.2-.7-.6-1s-1.1-.5-2-.6c-3-.6-4.5-1.9-4.5-3.8 0-1.1.5-2.1 1.4-2.8s2.2-1.1 3.7-1.1c1.6 0 2.9.4 3.9 1.1s1.4 1.7 1.4 3h-3.4c0-.5-.2-.9-.5-1.2s-.8-.5-1.5-.5c-.6 0-1 .1-1.3.4s-.5.6-.5 1 .2.7.5.9 1 .4 1.8.6 1.6.4 2.1.6c1.8.7 2.7 1.8 2.7 3.4 0 1.2-.5 2.1-1.5 2.8s-2.3 1.1-3.8 1.1c-1.1 0-2-.2-2.8-.6s-1.5-.9-1.9-1.6-.7-1.4-.7-2.1h3.2c0 .6.3 1.1.7 1.4s1 .5 1.7.5c.6 0 1.1-.1 1.5-.4s.4-.7.4-1.1z"/><path d="m178.9 14.8v3.1h2.2v2.5h-2.2v6.3c0 .5.1.8.3 1s.5.3 1 .3c.4 0 .7 0 1-.1v2.6c-.7.2-1.3.3-2.1.3-2.4 0-3.6-1.2-3.6-3.6v-6.8h-1.9v-2.5h1.9v-3.1z"/></g></svg>