<svg width="860" height="452" viewBox="0 0 860 452" fill="none" xmlns="http://www.w3.org/2000/svg">
<g clip-path="url(#clip0_532_6045)">
<path d="M860 0H0V452H860V0Z" fill="white"/>
<path d="M442.08 160.157H479.338V141.772H391.798V160.157H423.855V199.148H389.397V217.57H481.728V199.148H442.08V160.157ZM840.468 146.42H773.772C775.607 140.845 776.524 136.843 776.886 135.098H758.142C757.418 137.77 756.211 141.686 754.377 146.42H701.573V164.805H745.783C733.963 185.989 717.364 204.055 697.336 217.534H725.434C742.411 202.922 756.285 184.985 766.217 164.805H833.975V199.112H784.635V217.497H840.468C846.913 217.497 852.175 212.202 852.175 205.663V158.254C852.163 155.119 850.925 152.117 848.732 149.9C846.539 147.684 843.569 146.433 840.468 146.42ZM566.721 48.4663H522.848C519.745 48.4727 516.771 49.7216 514.577 51.9395C512.383 54.1574 511.147 57.1637 511.141 60.3003V145.285C511.141 183.313 503.332 207.627 499.337 217.57H518.769C522.643 206.139 527.278 187.802 528.799 162.585H560.227V199.148H541.797V217.534H566.697C573.13 217.534 578.404 212.239 578.404 205.7V60.2271C578.402 58.68 578.099 57.1484 577.512 55.7199C576.924 54.2913 576.064 52.9938 574.98 51.9016C573.896 50.8093 572.61 49.9437 571.195 49.3543C569.78 48.7648 568.263 48.4631 566.733 48.4663H566.721ZM560.203 66.8517V96.1927H529.306V66.8517H560.203ZM529.306 144.2V114.602H560.203V144.187H529.306V144.2ZM652.667 188.559C672.184 155.228 675.696 133.085 675.973 129.45C676.095 127.826 675.883 126.194 675.351 124.656C674.82 123.118 673.98 121.708 672.885 120.514C671.789 119.319 670.461 118.366 668.984 117.714C667.508 117.062 665.914 116.726 664.302 116.725H608.783V66.8395H654.273V87.2867H630.013V105.672H660.79C667.223 105.672 672.497 100.377 672.497 93.8381V60.2637C672.491 57.1271 671.256 54.1208 669.061 51.9029C666.867 49.685 663.893 48.4361 660.79 48.4297H602.253C599.15 48.4361 596.176 49.685 593.982 51.9029C591.788 54.1208 590.552 57.1271 590.546 60.2637V217.522H608.735V135.098H656.747C655.347 142.492 650.676 155.387 642.239 171.271C637.686 162.583 633.863 153.523 630.81 144.187H611.776C612.935 148.64 618.414 167.868 631.485 189.657C625.324 199.309 618.665 208.626 611.535 217.57H633.32C636.482 213.374 639.319 209.335 641.998 205.334C645.112 209.457 648.479 213.532 652.197 217.57H678.701C668.752 209.149 659.992 199.387 652.667 188.559ZM347.817 48.4663H328.953L325.356 62.4963H306.648V80.8695H320.649L309.69 123.496C308.483 127.9 309.412 132.475 312.128 136.062C314.844 139.661 319.008 141.772 323.473 141.772H343.026V166.538L306.648 172.674V191.06L343.026 184.923V217.534H361.214V181.849L380.719 178.543V160.145L361.214 163.463V141.784H378.558V123.386H361.214V101.683H343.026V123.386H328.591L339.501 80.8695H380.719V62.4841H344.221L347.817 48.4663ZM479.338 135.989V116.042C468.392 111.219 457.948 105.306 448.163 98.3887C459.592 86.9085 466.267 77.0143 468.391 73.6227C471.022 69.4503 471.179 64.1555 468.826 59.8367C467.624 57.643 465.863 55.8149 463.725 54.5425C461.588 53.2702 459.152 52.6001 456.672 52.6021H390.929V70.9875H447.933C432.914 90.564 413.329 106.073 390.929 116.127V136.05C406.55 129.966 421.151 121.489 434.222 110.918C447.137 120.654 462.284 129.047 479.362 136.001L479.338 135.989Z" fill="#333333"/>
<path d="M802.497 106.855C822.774 96.5587 837.04 85.8105 844.837 77.4779C846.423 75.805 847.486 73.6973 847.894 71.4175C848.303 69.1377 848.038 66.7869 847.133 64.6583C846.228 62.5297 844.723 60.7175 842.806 59.4479C840.889 58.1782 838.644 57.5072 836.352 57.5187H754.727C757.647 53.2365 759.603 50.0035 760.52 48.4297H738.783C732.145 57.8847 720.473 72.4271 704.518 84.7491V107.185C713.127 101.652 721.186 95.2905 728.584 88.1895C730.66 90.1293 739.495 97.7665 755.451 106.575C737.487 112.179 719.106 116.311 700.486 118.933V137.563C730.781 133.415 756.851 126.095 778.431 117.604C798.623 125.973 825.043 133.769 858.065 137.441V118.933C839.187 116.814 820.569 112.767 802.497 106.855ZM742.295 75.9407H818.767C810.137 82.4921 797.018 90.4099 779.276 97.8885C758.323 88.4701 746.133 79.1005 742.295 75.9407Z" fill="#333333"/>
<path d="M107.488 80.5416L155.883 163.774H190.57L106.244 18.625L0 201.625H37.175L107.506 80.5416H107.497H107.488Z" fill="url(#paint0_linear_532_6045)"/>
<path d="M78.2765 215.092L127.703 132.661L109.628 102.5L22.8682 247.375H243.93L224.607 215.092H78.2765Z" fill="url(#paint1_linear_532_6045)"/>
<path d="M116.521 171.745L99.0967 201.625H266.798L159.99 18.625L141.316 50.6527L211.982 171.745H116.503H116.521Z" fill="url(#paint2_linear_532_6045)"/>
<path d="M3.14917 369.506H37.8438V383H50.4148V369.506H59.7188V358.675H50.4148V310.273H34.0085L3.14917 359.03V369.506ZM37.9858 358.675H16.6435V358.107L37.4176 325.187H37.9858V358.675Z" fill="black"/>
<path d="M69.575 383.781C73.7653 383.781 77.3519 380.301 77.3875 375.969C77.3519 371.707 73.7653 368.227 69.575 368.227C65.2426 368.227 61.7269 371.707 61.7625 375.969C61.7269 380.301 65.2426 383.781 69.575 383.781Z" fill="black"/>
<path d="M106.136 383.994C121.867 383.994 133.124 375.33 133.16 363.504C133.124 354.413 126.413 346.814 117.961 345.393V344.896C125.312 343.263 130.425 336.658 130.461 328.774C130.425 317.588 120.127 309.278 106.136 309.278C92.0377 309.278 81.7394 317.553 81.7749 328.774C81.7394 336.658 86.782 343.263 94.2749 344.896V345.393C85.6811 346.814 79.0405 354.413 79.076 363.504C79.0405 375.33 90.2621 383.994 106.136 383.994ZM106.136 373.838C97.897 373.838 92.5703 369.293 92.6414 362.581C92.5703 355.621 98.2877 350.685 106.136 350.685C113.877 350.685 119.559 355.656 119.63 362.581C119.559 369.293 114.268 373.838 106.136 373.838ZM106.136 340.706C99.3885 340.706 94.559 336.338 94.63 330.017C94.559 323.767 99.2465 319.577 106.136 319.577C112.918 319.577 117.57 323.767 117.641 330.017C117.57 336.374 112.776 340.706 106.136 340.706Z" fill="black"/>
<path d="M137.334 383H187.192V371.991H155.516V371.494L168.052 358.746C182.185 345.18 186.091 338.575 186.091 330.372C186.091 318.192 176.184 309.278 161.553 309.278C147.135 309.278 136.908 318.227 136.908 332.041H149.444C149.444 324.619 154.131 319.967 161.375 319.967C168.3 319.967 173.449 324.193 173.449 331.047C173.449 337.119 169.756 341.452 162.583 348.732L137.334 373.483V383Z" fill="black"/>
<path d="M300.485 342.9C299.085 335 295.085 323.3 290.285 314.4L280.085 317.8C284.585 326.7 288.385 338.8 289.485 346.7L300.485 342.9ZM277.585 298.4H265.685V349.6C265.685 350.7 265.185 351.1 264.085 351.1C262.785 351.1 259.085 351.1 255.585 351C257.185 354.2 258.885 359.3 259.285 362.7C265.585 362.7 269.885 362.3 273.185 360.4C276.585 358.4 277.585 355.2 277.585 349.7V298.4ZM250.785 315.5C249.185 326.5 245.885 337.5 240.685 344.4C243.585 345.6 248.585 348.3 250.885 349.9C255.985 342.2 259.985 329.8 262.185 317.4L250.785 315.5ZM245.785 353.4C243.885 351.2 235.685 342.5 232.985 340.3V337.4H243.685V326.3H232.985V312.2C237.285 311.1 241.285 309.8 244.885 308.4L236.985 299.3C229.285 302.8 216.985 305.7 205.985 307.6C207.285 310 208.685 314 209.285 316.7C213.185 316.2 217.285 315.5 221.485 314.7V326.3H207.185V337.4H219.885C216.185 347.1 210.685 357.7 205.085 364.2C206.985 367.2 209.485 372.1 210.585 375.5C214.485 370.5 218.285 363.4 221.485 355.7V391.6H232.985V352.6C235.385 356.2 237.785 360.1 238.985 362.7L245.785 353.4ZM283.985 347.7C277.785 367.7 264.485 376.6 241.485 380.6C243.985 383.5 246.785 388.1 247.885 391.7C273.685 385.4 288.385 374.4 295.585 350.5L283.985 347.7Z" fill="black"/>
<path d="M349.285 307.9H330.885V299H319.385V307.9H301.085V318.2H349.285V307.9ZM334.385 363.3V376.5H315.685V363.3H334.385ZM304.685 391.8H315.685V386.8H334.385V391.4H345.985V353H304.685V391.8ZM333.485 318.5C332.685 323.1 330.885 329.4 329.385 333.6L337.485 335.7H311.285L320.685 333.5C320.285 329.4 318.685 323.4 316.585 318.9L306.885 320.9C308.585 325.5 310.085 331.7 310.385 335.7H298.985V346.5H350.385V335.7H338.785C340.485 331.8 342.585 326.4 344.685 320.9L333.485 318.5ZM383.485 303.6L381.685 304H353.485V391.7H365.085V315.2H377.185C374.785 322.8 371.585 333 368.685 340.1C376.685 347.9 378.885 355.1 378.885 360.5C378.885 363.9 378.285 366.2 376.485 367.3C375.485 367.8 374.185 368.1 372.785 368.1C371.285 368.2 369.385 368.1 367.185 368C369.085 371.3 370.085 376.4 370.085 379.6C372.885 379.7 375.785 379.7 378.085 379.4C380.585 379 382.985 378.2 384.885 376.9C388.685 374.2 390.285 369.3 390.285 362C390.285 355.4 388.785 347.6 380.285 338.6C384.285 330.1 388.685 318.6 392.185 309L383.485 303.6Z" fill="black"/>
<path d="M440.485 337.7H456.785C454.285 339.4 451.585 341 448.885 342.6H440.485V337.7ZM462.485 364.7V368.7H424.285V364.8L424.585 364.7H462.485ZM424.285 380.6V376.1H462.485V380.6H424.285ZM420.985 315.9H409.885V309.7H420.985V315.9ZM431.885 309.7H443.185V315.9H431.885V309.7ZM454.085 309.7H465.685V315.9H454.085V309.7ZM482.485 351.9V342.6H467.485C471.985 339.3 476.185 335.6 479.885 331.8L470.485 326.1C467.685 329.1 464.385 332 460.885 334.7V328.7H440.485V324.1H477.585V301.6H398.585V324.1H428.985V328.7H403.985V337.7H428.985V342.6H393.285V351.9H429.385C417.085 356.7 403.885 360.4 390.585 362.9C392.485 365.4 395.185 370.4 396.185 373C401.985 371.6 407.685 370.1 413.285 368.4V391.4H424.285V389H462.485V391.2H474.085V356.3H444.785C447.685 354.9 450.385 353.4 453.085 351.9H482.485Z" fill="black"/>
<path d="M514.493 310.273H500.04L525.644 383H541.908L567.547 310.273H553.059L534.167 367.517H533.421L514.493 310.273Z" fill="black"/>
<path d="M603.824 360.06C603.824 368.369 597.893 372.489 592.212 372.489C586.033 372.489 581.913 368.121 581.913 361.196V328.455H569.058V363.185C569.058 376.288 576.516 383.71 587.24 383.71C595.408 383.71 601.161 379.413 603.646 373.305H604.214V383H616.679V328.455H603.824V360.06Z" fill="black"/>
<path d="M646.546 384.065C659.259 384.065 667.995 377.851 670.267 368.369L658.265 367.02C656.525 371.636 652.263 374.051 646.723 374.051C638.414 374.051 632.909 368.582 632.803 359.243H670.8V355.301C670.8 336.161 659.294 327.744 645.871 327.744C630.246 327.744 620.054 339.214 620.054 356.047C620.054 373.163 630.104 384.065 646.546 384.065ZM632.838 350.578C633.229 343.618 638.378 337.759 646.049 337.759C653.435 337.759 658.407 343.156 658.478 350.578H632.838Z" fill="black"/>
<path d="M725.975 320.5V367.5H737.675V330.9H763.775V367.1H775.975V320.5H752.875C754.175 318.1 755.575 315.5 756.975 312.7H780.975V302.1H723.275V312.7H742.975C742.175 315.4 741.275 318 740.475 320.5H725.975ZM722.275 352.9L711.975 355.6V320.3H721.875V309.1H688.675V320.3H700.175V358.8C695.175 360.1 690.675 361.2 686.975 362.1L689.875 374.7C699.575 371.4 711.975 367 723.775 362.9L722.275 352.9ZM756.775 334.8H744.875V355C744.875 364.9 741.475 376.2 714.875 382.9C717.475 385.1 720.975 389.5 722.375 392C750.475 383.4 756.775 369 756.775 355.2V334.8ZM753.375 375.6C760.475 380.2 769.875 386.9 774.275 391.4L782.175 383.3C777.475 378.9 767.775 372.7 760.675 368.5L753.375 375.6Z" fill="black"/>
<path d="M803.675 372.8V361H849.975V372.8H803.675ZM849.975 338V349.8H803.675V338H849.975ZM849.975 315.3V326.8H803.675V315.3H849.975ZM791.675 303.7V390.6H803.675V384.4H849.975V390.6H862.575V303.7H791.675Z" fill="black"/>
</g>
<defs>
<linearGradient id="paint0_linear_532_6045" x1="190.886" y1="95.0817" x2="0.146256" y2="170.336" gradientUnits="userSpaceOnUse">
<stop stop-color="#2153F6"/>
<stop offset="1" stop-color="#5AA2F8"/>
</linearGradient>
<linearGradient id="paint1_linear_532_6045" x1="113.256" y1="130.884" x2="108.282" y2="264.409" gradientUnits="userSpaceOnUse">
<stop stop-color="#2153F6"/>
<stop offset="1" stop-color="#5AA2F8"/>
</linearGradient>
<linearGradient id="paint2_linear_532_6045" x1="131.952" y1="202.73" x2="222.429" y2="116.625" gradientUnits="userSpaceOnUse">
<stop stop-color="#2153F6"/>
<stop offset="1" stop-color="#5AA2F8"/>
</linearGradient>
<clipPath id="clip0_532_6045">
<rect width="860" height="452" fill="white"/>
</clipPath>
</defs>
</svg>
