<svg viewBox="0 0 511.91 110.05" xmlns="http://www.w3.org/2000/svg"><g fill="#189eff"><path d="m150.17 55.53c-4.68-2-8.53-3.87-8.53-6.92 0-2.14 2.42-4.17 6.5-4.17a24.41 24.41 0 0 1 10.07 2.34 2.19 2.19 0 0 0 3.05-.92l1.63-3.26a2.78 2.78 0 0 0 -1-3.46 26.21 26.21 0 0 0 -13.74-3.46c-11.4 0-16.06 6.92-16.06 12.82 0 7.73 6 11.6 13.21 14.86 6.51 2.95 10.07 5 10.07 8.14 0 2.65-2.24 4.58-6.21 4.58-5.6 0-8.95-1.93-11.7-3.46a2.09 2.09 0 0 0 -3.05.61l-2.14 4.38a1.92 1.92 0 0 0 .81 2.44 27.33 27.33 0 0 0 15.47 4.78c10.48 0 16.79-6.41 16.79-13.74-.01-8.74-6.52-11.89-15.17-15.56z"/><path d="m87.77 98c-4.77-3.6-11.83-6.34-19.29-9.23-8.88-3.44-19-7.35-26.51-13.36-8.56-6.82-12.73-15.41-12.73-26.29a29.74 29.74 0 0 1 11.71-24.12c8.59-6.76 21.61-10.34 37.64-10.34a92.7 92.7 0 0 1 12.58.81.79.79 0 0 0 .63-1.37 55 55 0 1 0 -36.8 95.9 54.63 54.63 0 0 0 32.76-10.73.79.79 0 0 0 .32-.63.8.8 0 0 0 -.31-.64z"/><path d="m109.83 49.94a.8.8 0 0 0 -.28-.54c-11.48-9.53-20.77-13.4-32.06-13.4-6 0-10.64 1.21-13.72 3.59a10.16 10.16 0 0 0 -4.08 8.31c0 9.45 11.55 13.76 24.93 18.75 6.89 2.57 14 5.23 20.56 8.86a.75.75 0 0 0 .38.1.86.86 0 0 0 .27-.05.79.79 0 0 0 .47-.46 54.91 54.91 0 0 0 3.77-20.1c-.01-1.6-.07-3.31-.24-5.06z"/><path d="m426.12 84.26a2.52 2.52 0 0 0 2.38-2.47v-23.87c0-12.21-1.49-21.67-17.21-21.67a52.73 52.73 0 0 0 -16.89 2.75 2.22 2.22 0 0 0 -1.59 2.87l1 4c.32 1.38 1.27 2.34 2.76 2a50.57 50.57 0 0 1 13.7-2.34c6.16 0 8.07 3.51 7.86 11.26a37.68 37.68 0 0 0 -9.88-1.49c-12.64 0-19.65 6.8-19.65 15.83 0 10.2 6.47 13.65 15.71 13.65 7.54 0 15.3-.09 18.53-.3zm-8.12-8.66c-1.49 2.44-6.8 1.83-11.36 1.74-5.1-.11-7.65-1.89-7.65-6.25.01-5.09 4.33-8.09 10.07-8.09a22.33 22.33 0 0 1 8.92 1.7v10.9z"/><path d="m506.32 35.69a5.57 5.57 0 1 0 -5.59-5.57 5.58 5.58 0 0 0 5.59 5.57zm0-10.32a4.75 4.75 0 1 1 -4.7 4.75 4.75 4.75 0 0 1 4.7-4.75z"/><path d="m504.42 32.94h.52a.15.15 0 0 0 .15-.15v-2h1.22l1 2.1a.16.16 0 0 0 .17.1h.6a.15.15 0 0 0 .14-.23l-1.1-2a1.78 1.78 0 0 0 1.24-1.76 1.73 1.73 0 0 0 -1.75-1.72h-2.19a.15.15 0 0 0 -.15.15v5.33a.15.15 0 0 0 .15.18zm.69-4.85h1.43a1 1 0 0 1 1 1 1 1 0 0 1 -1 1h-1.43z"/><path d="m196.59 35.69a22.62 22.62 0 0 0 -13.59 4.89v-21a2.41 2.41 0 0 0 -2.24-2.24h-5.76a2.33 2.33 0 0 0 -2.24 2.24v63a2.26 2.26 0 0 0 2.24 2.26h5.6a2.16 2.16 0 0 0 2.4-2.24v-30.42a14 14 0 0 1 12.31-6.82c6.11 0 9.36 4.58 9.36 12.31v24.94a2.26 2.26 0 0 0 2.24 2.24h5.7a2.33 2.33 0 0 0 2.24-2.24v-24.73c-.05-12.82-4.93-22.19-18.26-22.19z"/><path d="m315.78 58.37c-.56-16-7.25-22.68-22.66-22.68a65 65 0 0 0 -17.53 2.79c-1.6.69-2.78 1.51-2.78 2.63v59.83a2.26 2.26 0 0 0 2.24 2.24h4.72a2.2 2.2 0 0 0 2.44-2.24v-16.94a86 86 0 0 0 14.84.8c10.88-.34 18.18-8.24 18.79-21.58a59.18 59.18 0 0 0 0-6v1.1zm-9.83 4.87c-.21 9.05-2.84 13.05-10.46 13.47-3.77.21-12.67-.84-12.67-.84a.69.69 0 0 1 -.62-.62v-28.74a.54.54 0 0 1 .49-.54 48.7 48.7 0 0 1 10.44-1.35c9.28 0 12.55 1.36 12.85 13.11.02 1.55.02 3.72-.03 5.51z"/><path d="m383.17 36.71h-4.27c-1.22 0-3 0-3.56 1.43l-7.53 27.06h-.2l-12.61-28.39a2 2 0 0 0 -2-1.12h-.71a2.13 2.13 0 0 0 -1.93 1.12l-12.77 28.29h-.2l-7.73-27a2.07 2.07 0 0 0 -2-1.43h-6.11a1.69 1.69 0 0 0 -1.63 2.65l13.74 44.26a1.86 1.86 0 0 0 1.93 1.22h.61a1.77 1.77 0 0 0 1.8-1.08l14.45-32h.2l14.35 32a2.2 2.2 0 0 0 2 1.12h.41a2.16 2.16 0 0 0 2.14-1.22l13.45-44.26c.72-1.43-.2-2.65-1.83-2.65z"/><path d="m458.23 36.25c-.25 0-.48 0-.73 0-.41 0-.81 0-1.24 0-2.44 0-4.78.08-7 .19-4.22.17-6.72.49-8.5.69 0 0-1.14.11-2.47.28a2.82 2.82 0 0 0 -1.94 1 1.59 1.59 0 0 0 -.44 1.11v43.07a2.26 2.26 0 0 0 2.24 2.24h4.68c1.93 0 3.26-.2 3.26-2.24v-29.12-6.68a1.39 1.39 0 0 1 .71-.79c1.15-.69 3.91-1.19 9.46-1.19h1.29a14.17 14.17 0 0 1 3.93.88 2 2 0 0 0 2.85-1.12l2.44-4c1.53-3.1-4.06-4.32-8.54-4.32z"/><path d="m490.44 35.69c-14.14 0-23.44 11.31-23.44 24.52 0 13.43 9.26 24.62 23.5 24.62 7.83 0 14-2.85 17.4-5.8 1.42-1.22 1-2.14.2-3.15l-2.75-4.27c-.81-1.22-1.73-.92-2.75-.2a18.28 18.28 0 0 1 -11.5 4c-8.24 0-13.94-6.51-14-12.82h32.46a2.21 2.21 0 0 0 2.14-2c.1-.81.2-2.44.2-3.26 0-12.58-9.25-21.64-21.46-21.64zm-12.82 19.31c.71-5.9 5.19-10.68 12.62-10.68 6.92 0 11.4 5 11.6 10.68z"/><path d="m264.64 50.23a23.16 23.16 0 0 0 -4.46-7.79 19.63 19.63 0 0 0 -6.85-5 26.65 26.65 0 0 0 -19 0 19.72 19.72 0 0 0 -6.85 5 23.16 23.16 0 0 0 -4.48 7.79 30.25 30.25 0 0 0 -1.59 10 30.11 30.11 0 0 0 1.59 10.12 23.21 23.21 0 0 0 4.46 7.74 19.63 19.63 0 0 0 6.85 5 26.8 26.8 0 0 0 19 0 19.72 19.72 0 0 0 6.85-5 23.21 23.21 0 0 0 4.46-7.74 30.11 30.11 0 0 0 1.59-10.08 30.25 30.25 0 0 0 -1.57-10.04zm-21.1 26.51c-8.49 0-12.77-7.19-12.77-16.06s4.23-16.06 12.77-16.06 12.77 7.19 12.77 16.06-4.31 16.06-12.77 16.06z"/></g></svg>