<svg width="358" height="81" viewBox="0 0 358 81" fill="none" xmlns="http://www.w3.org/2000/svg">
<path d="M57.1207 78.0331C44.0563 67.7716 32.553 41.1435 87.8349 15.051C88.8094 14.5911 88.527 13.1488 87.4505 13.1969C69.9007 13.9807 39.3164 19.5947 27.7817 37.7915C25.9762 41.7547 26.9692 50.4128 45.3851 53.3394C49.1465 54.254 57.6624 57.1349 61.6344 61.342C66.5995 66.6008 76.9809 61.7993 76.5296 53.3394C76.0939 45.174 57.9976 14.8561 50.0416 11.7274C49.5822 11.5467 49.2435 11.1341 49.3486 10.6518C49.6755 9.15166 50.5698 6.36616 51.2637 4.31785C51.4795 3.68054 51.033 3.01192 50.3602 3.00384C30.1463 2.76115 -5.30224 13.9386 4.76193 61.342" stroke="black" stroke-width="5" stroke-linecap="round"/>
<path d="M138.685 42.7439V27.2292H133.018V42.7439C133.018 47.0035 130.517 49.7391 126.609 49.7391C122.662 49.7391 120.122 47.0035 120.122 42.7439V27.2292H114.455V42.7439C114.455 50.2472 119.184 54.9758 126.57 54.9758C133.917 54.9758 138.685 50.2081 138.685 42.7439Z" fill="black"/>
<path d="M153.949 27.2292V54.585H159.303V36.2957L173.255 54.585H178.257V27.2292H172.942V44.9323L159.342 27.2292H153.949Z" fill="black"/>
<path d="M193.968 54.585H199.635V27.2292H193.968V54.585Z" fill="black"/>
<path d="M229.041 49.7391C223.96 49.7391 220.13 45.9093 220.13 40.9071C220.13 35.8267 223.921 31.9969 228.884 31.9969C231.815 31.9969 234.473 33.2866 236.427 35.7095L240.256 31.9188C237.716 28.7924 233.3 26.7993 228.884 26.7993C220.677 26.7993 214.307 32.9348 214.307 40.9071C214.307 48.8403 220.638 54.9758 228.884 54.9758C233.183 54.9758 237.482 53.0218 240.1 49.9345L236.388 46.261C234.473 48.5277 231.932 49.7391 229.041 49.7391Z" fill="black"/>
<path d="M281.3 40.9071C281.3 33.013 274.93 26.7993 266.801 26.7993C258.712 26.7993 252.342 33.013 252.342 40.9071C252.342 48.8012 258.712 55.0149 266.801 55.0149C274.93 55.0149 281.3 48.8012 281.3 40.9071ZM275.477 40.9071C275.477 45.9484 271.725 49.8173 266.801 49.8173C261.916 49.8173 258.164 45.9484 258.164 40.9071C258.164 35.8267 261.916 31.9969 266.801 31.9969C271.725 31.9969 275.477 35.8267 275.477 40.9071Z" fill="black"/>
<path d="M295.934 54.585H301.601V44.1116H307.775L313.129 54.585H319.46L313.403 43.3301C316.646 42.0404 318.757 39.1876 318.757 35.7095C318.757 30.7073 314.849 27.2292 309.299 27.2292H295.934V54.585ZM308.791 32.1142C311.332 32.1142 313.012 33.5992 313.012 35.7877C313.012 37.9761 311.332 39.4612 308.791 39.4612H301.601V32.1142H308.791Z" fill="black"/>
<path d="M333.205 27.2292V54.585H338.559V36.2957L352.51 54.585H357.512V27.2292H352.198V44.9323L338.598 27.2292H333.205Z" fill="black"/>
</svg>
