<svg xmlns="http://www.w3.org/2000/svg" width="60" height="60" viewBox="0 0 60 60">
  <defs>
    <linearGradient id="a" x1="50.346%" x2="50.034%" y1="27.089%" y2="66.281%">
      <stop offset="0%" stop-color="#131057"/>
      <stop offset="100%" stop-color="#4F48AD"/>
    </linearGradient>
    <linearGradient id="b" x1="49.934%" x2="49.987%" y1="-3.66%" y2="76.387%">
      <stop offset="0%" stop-color="#131057"/>
      <stop offset="100%" stop-color="#4F48AD"/>
    </linearGradient>
    <linearGradient id="c" x1="50.003%" x2="50.051%" y1="69.711%" y2="29.548%">
      <stop offset="0%" stop-color="#EE6D93"/>
      <stop offset="100%" stop-color="#F7C6B8"/>
    </linearGradient>
    <linearGradient id="d" x1="49.16%" x2="50.99%" y1="98.889%" y2=".469%">
      <stop offset="0%" stop-color="#3CAC96"/>
      <stop offset="100%" stop-color="#5FCEB8"/>
    </linearGradient>
    <linearGradient id="e" x1="70.568%" x2="44.103%" y1="-10.327%" y2="72.88%">
      <stop offset="0%" stop-color="#80C3FF"/>
      <stop offset="45.54%" stop-color="#349BF7"/>
      <stop offset="100%" stop-color="#714DD6"/>
    </linearGradient>
  </defs>
  <g fill="none" fill-rule="nonzero">
    <path fill="url(#a)" d="M17.767 37.765c-3.553-19.967 1.515-32.773 1.515-32.773s-1.573 7.865 6.873 20.974c-.99 15.782 2.156 24.152 2.156 24.152l.757-.454-.757.504c0 .05-5.185-4.034-10.544-12.403z"/>
    <path fill="url(#b)" d="M39.612 35.849c2.097 2.017 4.077 3.428 5.534 4.134 0 0 1.63.605 1.922.252 2.155-1.764 2.796-5.243 1.806-11.848-7.515-4.135-8.214-10.185-8.214-10.185s-1.806 8.269-1.048 17.647z"/>
    <path fill="url(#c)" d="M19.282 4.992s-7.399 18.705 1.922 46.134c.233.807-.117 1.664-.874 2.118L8.563 59.697c-1.107.656-2.68.152-3.087-1.008-2.622-7.31-9.67-31.462.174-57.176C6.117.504 7.398-.05 8.563.403l10.719 4.589z"/>
    <path fill="url(#d)" d="M38.97 43.966l-10.66 6.152s-4.776-12.857-.64-36.706c.291-1.362 1.98-2.017 3.32-1.26l9.67 6.05s-2.621 11.596-.35 22.991c.234 1.11-.29 2.219-1.34 2.773z"/>
    <path fill="url(#e)" d="M58.777 30.1l-9.204-5.848c-.583-.353-1.456.1-1.34.706 1.806 8.824 1.223 13.16-1.223 15.227-.292.353-1.923-.252-1.923-.252 1.515.756 1.923.403 1.923.403a672.81 672.81 0 0 1 11.534-6.554c1.573-.858 1.689-2.723.233-3.681z"/>
  </g>
</svg>
