<?xml version="1.0" encoding="UTF-8"?>
<svg xmlns="http://www.w3.org/2000/svg" xmlns:xlink="http://www.w3.org/1999/xlink" width="118pt" height="22pt" viewBox="0 0 118 22" version="1.1">
<g id="surface1">
<path style=" stroke:none;fill-rule:nonzero;fill:rgb(17.647059%,24.705882%,31.372549%);fill-opacity:1;" d="M 67.226562 8.519531 C 66.863281 8.152344 66.441406 7.972656 65.964844 7.972656 C 65.261719 7.972656 64.753906 8.214844 64.4375 8.695312 C 64.125 9.179688 63.964844 9.792969 63.964844 10.535156 L 63.964844 15.679688 C 63.964844 15.890625 63.980469 16.082031 64.007812 16.257812 C 64.035156 16.433594 64.097656 16.605469 64.195312 16.773438 L 62.3125 16.792969 C 62.410156 16.625 62.480469 16.414062 62.523438 16.152344 C 62.5625 15.894531 62.585938 15.652344 62.585938 15.429688 L 62.585938 8.519531 C 62.585938 8.222656 62.570312 7.972656 62.542969 7.761719 C 62.515625 7.550781 62.445312 7.324219 62.332031 7.085938 L 63.964844 7.085938 L 63.964844 9.152344 C 64.40625 8.574219 64.875 8.105469 65.375 7.738281 C 65.957031 7.320312 66.574219 7.074219 67.226562 7.003906 Z M 67.226562 8.519531 "/>
<path style=" stroke:none;fill-rule:nonzero;fill:rgb(17.647059%,24.705882%,31.372549%);fill-opacity:1;" d="M 68.023438 10.414062 C 67.96875 10.878906 67.933594 11.199219 67.929688 11.382812 C 67.921875 11.566406 67.917969 11.710938 67.917969 11.824219 C 67.917969 13.160156 68.191406 14.238281 68.734375 15.066406 C 69.375 16.050781 70.324219 16.542969 71.578125 16.542969 C 72.136719 16.542969 72.691406 16.433594 73.242188 16.214844 C 73.792969 15.996094 74.289062 15.691406 74.734375 15.300781 L 74.609375 15.824219 C 74.023438 16.277344 73.472656 16.597656 72.957031 16.792969 C 72.441406 16.992188 71.84375 17.089844 71.160156 17.089844 C 69.722656 17.089844 68.578125 16.59375 67.71875 15.605469 C 66.863281 14.617188 66.433594 13.382812 66.433594 11.910156 C 66.433594 10.464844 66.882812 9.265625 67.78125 8.320312 C 68.679688 7.371094 69.835938 6.898438 71.242188 6.898438 C 72.300781 6.898438 73.214844 7.222656 73.984375 7.867188 C 74.75 8.511719 75.183594 9.363281 75.28125 10.414062 Z M 72.769531 10.203125 C 73.398438 10.203125 73.710938 9.898438 73.710938 9.285156 C 73.710938 8.640625 73.464844 8.117188 72.96875 7.714844 C 72.472656 7.3125 71.898438 7.109375 71.242188 7.109375 C 70.394531 7.109375 69.683594 7.417969 69.109375 8.027344 C 68.59375 8.585938 68.246094 9.3125 68.066406 10.203125 Z M 72.769531 10.203125 "/>
<path style=" stroke:none;fill-rule:nonzero;fill:rgb(17.647059%,24.705882%,31.372549%);fill-opacity:1;" d="M 76.074219 14.773438 L 76.074219 8.539062 C 76.074219 8.191406 76.054688 7.929688 76.015625 7.761719 C 75.980469 7.59375 75.910156 7.425781 75.800781 7.257812 L 77.621094 7.257812 L 77.621094 15.46875 C 77.621094 15.820312 77.632812 16.078125 77.652344 16.246094 C 77.675781 16.414062 77.746094 16.597656 77.875 16.792969 L 75.71875 16.792969 C 75.859375 16.570312 75.953125 16.359375 76 16.164062 C 76.050781 15.964844 76.074219 15.71875 76.074219 15.425781 C 76.074219 15.144531 76.074219 14.925781 76.074219 14.773438 Z M 76.878906 2.792969 C 77.171875 2.792969 77.429688 2.875 77.65625 3.042969 C 77.882812 3.214844 78 3.445312 78 3.738281 C 78 4.019531 77.882812 4.242188 77.65625 4.402344 C 77.429688 4.5625 77.175781 4.644531 76.902344 4.644531 C 76.625 4.644531 76.371094 4.5625 76.144531 4.390625 C 75.914062 4.222656 75.804688 4.007812 75.804688 3.738281 C 75.804688 3.457031 75.910156 3.230469 76.125 3.054688 C 76.335938 2.878906 76.589844 2.792969 76.878906 2.792969 Z M 76.878906 2.792969 "/>
<path style=" stroke:none;fill-rule:nonzero;fill:rgb(17.647059%,24.705882%,31.372549%);fill-opacity:1;" d="M 78.917969 14.835938 L 78.917969 8.433594 C 78.917969 8.042969 78.90625 7.769531 78.878906 7.625 C 78.855469 7.476562 78.804688 7.296875 78.730469 7.085938 L 80.296875 7.085938 L 80.296875 8.75 C 80.832031 8.148438 81.339844 7.703125 81.832031 7.425781 C 82.433594 7.074219 83.089844 6.898438 83.804688 6.898438 L 84.453125 6.898438 C 85.390625 7.023438 86.039062 7.300781 86.40625 7.722656 C 86.765625 8.144531 86.949219 8.84375 86.949219 9.816406 L 86.949219 15.441406 C 86.949219 15.609375 86.953125 15.816406 86.960938 16.066406 C 86.96875 16.3125 87.03125 16.554688 87.160156 16.792969 L 85.464844 16.792969 C 85.535156 16.007812 85.570312 15.222656 85.570312 14.4375 L 85.570312 10.371094 C 85.570312 9.515625 85.417969 8.84375 85.109375 8.351562 C 84.738281 7.761719 84.144531 7.464844 83.339844 7.464844 C 83.078125 7.464844 82.785156 7.5 82.464844 7.570312 C 81.660156 7.738281 81.089844 8.066406 80.757812 8.550781 C 80.425781 9.035156 80.257812 9.710938 80.257812 10.582031 L 80.257812 15.613281 C 80.257812 15.824219 80.269531 16.027344 80.296875 16.226562 C 80.320312 16.421875 80.378906 16.613281 80.46875 16.792969 L 78.625 16.792969 C 78.714844 16.65625 78.789062 16.472656 78.839844 16.246094 C 78.894531 16.023438 78.917969 15.71875 78.917969 15.339844 C 78.917969 15.117188 78.917969 14.949219 78.917969 14.835938 Z M 78.917969 14.835938 "/>
<path style=" stroke:none;fill-rule:nonzero;fill:rgb(17.647059%,24.705882%,31.372549%);fill-opacity:1;" d="M 89.144531 7.085938 L 89.125 7.359375 C 89.125 7.527344 89.148438 7.71875 89.199219 7.929688 C 89.25 8.136719 89.316406 8.355469 89.40625 8.578125 L 91.957031 15.652344 L 94.503906 8.570312 C 94.597656 8.273438 94.644531 8.007812 94.644531 7.765625 C 94.644531 7.539062 94.589844 7.3125 94.480469 7.085938 L 95.648438 7.085938 C 95.328125 7.453125 95.078125 7.894531 94.898438 8.414062 L 91.800781 16.792969 L 90.902344 16.792969 L 87.828125 8.414062 C 87.730469 8.148438 87.628906 7.910156 87.523438 7.699219 C 87.421875 7.488281 87.277344 7.285156 87.097656 7.085938 Z M 89.144531 7.085938 "/>
<path style=" stroke:none;fill-rule:nonzero;fill:rgb(17.647059%,24.705882%,31.372549%);fill-opacity:1;" d="M 96.78125 10.414062 C 96.722656 10.878906 96.691406 11.199219 96.683594 11.382812 C 96.675781 11.566406 96.675781 11.710938 96.675781 11.824219 C 96.675781 13.160156 96.945312 14.238281 97.488281 15.066406 C 98.132812 16.050781 99.078125 16.542969 100.335938 16.542969 C 100.890625 16.542969 101.445312 16.433594 101.996094 16.214844 C 102.546875 15.996094 103.046875 15.691406 103.492188 15.300781 L 103.367188 15.824219 C 102.78125 16.277344 102.230469 16.597656 101.714844 16.792969 C 101.199219 16.992188 100.597656 17.089844 99.917969 17.089844 C 98.480469 17.089844 97.332031 16.59375 96.476562 15.605469 C 95.617188 14.617188 95.1875 13.382812 95.1875 11.910156 C 95.1875 10.464844 95.640625 9.265625 96.539062 8.320312 C 97.4375 7.371094 98.589844 6.898438 100 6.898438 C 101.058594 6.898438 101.972656 7.222656 102.738281 7.867188 C 103.503906 8.511719 103.9375 9.363281 104.035156 10.414062 Z M 101.527344 10.203125 C 102.152344 10.203125 102.46875 9.898438 102.46875 9.285156 C 102.46875 8.640625 102.21875 8.117188 101.726562 7.714844 C 101.230469 7.3125 100.65625 7.109375 100 7.109375 C 99.148438 7.109375 98.4375 7.417969 97.867188 8.027344 C 97.351562 8.585938 97.003906 9.3125 96.820312 10.203125 Z M 101.527344 10.203125 "/>
<path style=" stroke:none;fill-rule:nonzero;fill:rgb(17.647059%,24.705882%,31.372549%);fill-opacity:1;" d="M 104.746094 14.835938 L 104.746094 8.433594 C 104.746094 8.042969 104.734375 7.769531 104.710938 7.625 C 104.683594 7.476562 104.632812 7.296875 104.558594 7.085938 L 106.128906 7.085938 L 106.128906 8.75 C 106.660156 8.148438 107.171875 7.703125 107.660156 7.425781 C 108.261719 7.074219 108.917969 6.898438 109.632812 6.898438 L 110.28125 6.898438 C 111.21875 7.023438 111.871094 7.300781 112.234375 7.722656 C 112.597656 8.144531 112.777344 8.84375 112.777344 9.816406 L 112.777344 15.441406 C 112.777344 15.609375 112.78125 15.816406 112.789062 16.066406 C 112.796875 16.3125 112.859375 16.554688 112.988281 16.792969 L 111.292969 16.792969 C 111.363281 16.007812 111.398438 15.222656 111.398438 14.4375 L 111.398438 10.371094 C 111.398438 9.515625 111.242188 8.84375 110.941406 8.351562 C 110.566406 7.761719 109.972656 7.464844 109.167969 7.464844 C 108.90625 7.464844 108.613281 7.5 108.292969 7.570312 C 107.488281 7.738281 106.917969 8.066406 106.585938 8.550781 C 106.253906 9.035156 106.085938 9.710938 106.085938 10.582031 L 106.085938 15.613281 C 106.085938 15.824219 106.097656 16.027344 106.125 16.226562 C 106.148438 16.421875 106.207031 16.613281 106.296875 16.792969 L 104.453125 16.792969 C 104.546875 16.65625 104.617188 16.472656 104.667969 16.246094 C 104.722656 16.023438 104.75 15.71875 104.75 15.339844 C 104.746094 15.117188 104.746094 14.949219 104.746094 14.835938 Z M 104.746094 14.835938 "/>
<path style=" stroke:none;fill-rule:nonzero;fill:rgb(17.647059%,24.705882%,31.372549%);fill-opacity:1;" d="M 113.382812 7.191406 L 114.179688 7.191406 L 114.179688 5.039062 L 115.621094 4.640625 L 115.621094 7.191406 L 117.628906 7.191406 L 117.546875 7.570312 L 115.621094 7.570312 L 115.621094 14.582031 C 115.621094 15.117188 115.691406 15.523438 115.832031 15.804688 C 116.027344 16.195312 116.359375 16.394531 116.835938 16.394531 C 117.183594 16.394531 117.5 16.296875 117.777344 16.097656 L 117.777344 16.476562 C 117.527344 16.644531 117.246094 16.773438 116.941406 16.855469 C 116.632812 16.941406 116.320312 16.984375 116 16.984375 C 115.273438 16.984375 114.773438 16.730469 114.492188 16.226562 C 114.285156 15.847656 114.179688 15.257812 114.179688 14.457031 L 114.179688 7.570312 L 113.300781 7.570312 Z M 113.382812 7.191406 "/>
<path style=" stroke:none;fill-rule:nonzero;fill:rgb(17.647059%,24.705882%,31.372549%);fill-opacity:1;" d="M 23.992188 7.253906 L 27.59375 7.253906 L 29.152344 13.414062 L 31.125 7.253906 L 34.492188 7.253906 L 36.546875 13.429688 L 38.113281 7.253906 L 41.695312 7.253906 L 38.113281 17.039062 L 34.800781 17.039062 L 32.832031 11.148438 L 30.925781 17.039062 L 27.597656 17.039062 Z M 23.992188 7.253906 "/>
<path style=" stroke:none;fill-rule:nonzero;fill:rgb(17.647059%,24.705882%,31.372549%);fill-opacity:1;" d="M 51.476562 13.078125 L 44.007812 13.078125 C 44.074219 13.679688 44.234375 14.125 44.492188 14.421875 C 44.851562 14.847656 45.320312 15.058594 45.902344 15.058594 C 46.269531 15.058594 46.617188 14.964844 46.945312 14.78125 C 47.144531 14.664062 47.363281 14.460938 47.59375 14.164062 L 51.265625 14.503906 C 50.703125 15.488281 50.027344 16.191406 49.234375 16.621094 C 48.4375 17.046875 47.300781 17.261719 45.820312 17.261719 C 44.53125 17.261719 43.519531 17.078125 42.78125 16.710938 C 42.042969 16.347656 41.429688 15.765625 40.945312 14.96875 C 40.460938 14.175781 40.21875 13.242188 40.21875 12.164062 C 40.21875 10.636719 40.703125 9.398438 41.675781 8.449219 C 42.648438 7.503906 43.992188 7.03125 45.707031 7.03125 C 47.101562 7.03125 48.199219 7.242188 49.003906 7.667969 C 49.808594 8.09375 50.421875 8.707031 50.84375 9.511719 C 51.265625 10.316406 51.472656 11.363281 51.472656 12.652344 L 51.472656 13.078125 Z M 47.6875 11.28125 C 47.613281 10.554688 47.417969 10.035156 47.105469 9.722656 C 46.789062 9.410156 46.375 9.253906 45.863281 9.253906 C 45.273438 9.253906 44.800781 9.488281 44.445312 9.960938 C 44.21875 10.257812 44.078125 10.695312 44.015625 11.28125 Z M 47.6875 11.28125 "/>
<path style=" stroke:none;fill-rule:nonzero;fill:rgb(17.647059%,24.705882%,31.372549%);fill-opacity:1;" d="M 51.472656 3.527344 L 55.234375 3.527344 L 55.234375 8.210938 C 55.609375 7.820312 56.03125 7.523438 56.503906 7.328125 C 56.976562 7.132812 57.5 7.03125 58.074219 7.03125 C 59.257812 7.03125 60.234375 7.460938 61.011719 8.316406 C 61.785156 9.175781 62.171875 10.40625 62.171875 12.007812 C 62.171875 13.078125 61.996094 14.019531 61.640625 14.832031 C 61.289062 15.644531 60.796875 16.253906 60.171875 16.65625 C 59.546875 17.058594 58.855469 17.261719 58.089844 17.261719 C 57.4375 17.261719 56.839844 17.117188 56.296875 16.835938 C 55.886719 16.613281 55.441406 16.199219 54.960938 15.589844 L 54.960938 17.039062 L 51.472656 17.039062 Z M 55.207031 12.117188 C 55.207031 12.960938 55.367188 13.570312 55.679688 13.949219 C 55.996094 14.324219 56.390625 14.515625 56.875 14.515625 C 57.320312 14.515625 57.691406 14.328125 57.996094 13.957031 C 58.296875 13.585938 58.449219 12.960938 58.449219 12.082031 C 58.449219 11.304688 58.300781 10.738281 58.003906 10.375 C 57.707031 10.015625 57.351562 9.832031 56.929688 9.832031 C 56.421875 9.832031 56.007812 10.023438 55.6875 10.398438 C 55.367188 10.777344 55.207031 11.351562 55.207031 12.117188 Z M 55.207031 12.117188 "/>
<path style=" stroke:none;fill-rule:nonzero;fill:rgb(17.647059%,24.705882%,31.372549%);fill-opacity:1;" d="M 10.457031 15.726562 C 12.792969 18.082031 15.378906 15.425781 15.378906 15.425781 C 18.132812 12.75 15.679688 10.417969 15.679688 10.417969 L 14.054688 8.792969 C 13.78125 8.519531 13.339844 8.519531 13.066406 8.796875 L 12.839844 9.023438 C 12.570312 9.300781 12.570312 9.742188 12.84375 10.015625 L 14.449219 11.625 C 14.449219 11.625 15.890625 12.910156 14.421875 14.359375 C 14.421875 14.359375 13.003906 15.972656 11.652344 14.488281 L 10.027344 12.867188 C 9.753906 12.59375 9.3125 12.59375 9.042969 12.871094 L 8.816406 13.097656 C 8.542969 13.371094 8.542969 13.816406 8.820312 14.089844 Z M 10.457031 15.726562 "/>
<path style=" stroke:none;fill-rule:nonzero;fill:rgb(17.647059%,24.705882%,31.372549%);fill-opacity:1;" d="M 10.855469 12.144531 C 10.550781 11.839844 10.523438 11.371094 10.796875 11.09375 L 11.023438 10.867188 C 11.292969 10.589844 11.761719 10.617188 12.066406 10.921875 L 13.859375 12.71875 C 14.164062 13.027344 14.191406 13.496094 13.921875 13.769531 L 13.695312 14 C 13.421875 14.269531 12.957031 14.25 12.652344 13.941406 Z M 10.855469 12.144531 "/>
<path style=" stroke:none;fill-rule:nonzero;fill:rgb(17.647059%,24.705882%,31.372549%);fill-opacity:1;" d="M 21.746094 20.789062 C 21.167969 17.941406 21.328125 15.3125 21.480469 12.773438 C 21.714844 8.835938 21.9375 5.117188 18.960938 2.121094 C 16.363281 -0.496094 12.136719 -0.496094 9.539062 2.121094 C 8.089844 3.578125 7.410156 5.632812 7.640625 7.644531 C 5.644531 7.410156 3.605469 8.09375 2.152344 9.554688 C -0.445312 12.167969 -0.445312 16.425781 2.152344 19.039062 C 5.265625 22.171875 8.964844 21.929688 12.882812 21.667969 C 13.132812 21.652344 13.382812 21.632812 13.632812 21.617188 L 14.546875 21.558594 L 11.199219 19.96875 L 10.054688 20.015625 C 7.484375 20.058594 5.316406 19.691406 3.414062 17.773438 C 1.507812 15.855469 1.507812 12.738281 3.414062 10.820312 C 4.742188 9.484375 6.75 9.035156 8.527344 9.683594 L 10.308594 10.332031 L 9.667969 8.535156 C 9.023438 6.746094 9.46875 4.726562 10.796875 3.386719 C 12.703125 1.46875 15.796875 1.46875 17.703125 3.386719 C 20.113281 5.8125 19.929688 8.835938 19.703125 12.664062 C 19.621094 14.007812 19.535156 15.445312 19.566406 16.960938 L 21.886719 21.777344 Z M 21.746094 20.789062 "/>
</g>
</svg>
